G04 MADE WITH FRITZING*
G04 WWW.FRITZING.ORG*
G04 DOUBLE SIDED*
G04 HOLES PLATED*
G04 CONTOUR ON CENTER OF CONTOUR VECTOR*
%ASAXBY*%
%FSLAX23Y23*%
%MOIN*%
%OFA0B0*%
%SFA1.0B1.0*%
%ADD10C,0.088000*%
%ADD11C,0.092000*%
%ADD12C,0.049370*%
%ADD13C,0.075000*%
%ADD14R,0.088000X0.088000*%
%ADD15R,0.092000X0.092000*%
%ADD16R,0.001000X0.001000*%
%LNMASK0*%
G90*
G70*
G54D10*
X2159Y156D03*
X2059Y156D03*
X1959Y156D03*
X1859Y156D03*
X1759Y156D03*
X1659Y156D03*
X1559Y156D03*
X1459Y156D03*
X1359Y156D03*
X1259Y156D03*
X1159Y156D03*
X1059Y156D03*
X959Y156D03*
X859Y156D03*
X759Y156D03*
X659Y156D03*
X559Y156D03*
X459Y156D03*
X359Y156D03*
X259Y156D03*
X1959Y2055D03*
X1859Y2055D03*
X2159Y855D03*
X2059Y855D03*
X1959Y855D03*
X1859Y855D03*
X1759Y855D03*
X1659Y855D03*
X1559Y855D03*
X1459Y855D03*
X1359Y855D03*
X1259Y855D03*
X1159Y855D03*
X1059Y855D03*
X959Y855D03*
X859Y855D03*
X759Y855D03*
X659Y855D03*
X559Y855D03*
X459Y855D03*
X359Y855D03*
X259Y855D03*
X359Y1955D03*
X459Y1955D03*
X559Y1955D03*
X659Y1955D03*
X759Y1955D03*
X859Y1955D03*
X959Y1955D03*
X1059Y1955D03*
X1159Y1955D03*
X1259Y1955D03*
X359Y2055D03*
X459Y2055D03*
X559Y2055D03*
X659Y2055D03*
X759Y2055D03*
X859Y2055D03*
X959Y2055D03*
X1059Y2055D03*
X1159Y2055D03*
X1259Y2055D03*
X1659Y2055D03*
X1559Y2055D03*
X1459Y2055D03*
G54D11*
X1859Y1905D03*
X1561Y1905D03*
G54D12*
X2108Y1606D03*
X459Y1855D03*
X559Y1855D03*
X659Y1855D03*
X759Y1855D03*
X859Y1855D03*
X959Y1855D03*
X1059Y1855D03*
X359Y1855D03*
X259Y1355D03*
X359Y1355D03*
X459Y1355D03*
X559Y1355D03*
X659Y1355D03*
X759Y1355D03*
X2059Y955D03*
X2159Y955D03*
G54D13*
X2259Y1255D03*
X2159Y1255D03*
X109Y1555D03*
X109Y1655D03*
G54D12*
X959Y1555D03*
G54D14*
X1659Y2055D03*
G54D15*
X1860Y1905D03*
G54D16*
X259Y1795D02*
X260Y1795D01*
X359Y1795D02*
X360Y1795D01*
X458Y1795D02*
X460Y1795D01*
X558Y1795D02*
X560Y1795D01*
X658Y1795D02*
X660Y1795D01*
X758Y1795D02*
X760Y1795D01*
X858Y1795D02*
X860Y1795D01*
X958Y1795D02*
X960Y1795D01*
X1058Y1795D02*
X1060Y1795D01*
X1158Y1795D02*
X1160Y1795D01*
X1458Y1795D02*
X1460Y1795D01*
X1558Y1795D02*
X1560Y1795D01*
X1658Y1795D02*
X1660Y1795D01*
X1758Y1795D02*
X1760Y1795D01*
X1858Y1795D02*
X1860Y1795D01*
X1958Y1795D02*
X1960Y1795D01*
X2058Y1795D02*
X2060Y1795D01*
X2158Y1795D02*
X2160Y1795D01*
X2258Y1795D02*
X2260Y1795D01*
X2358Y1795D02*
X2360Y1795D01*
X251Y1794D02*
X267Y1794D01*
X351Y1794D02*
X367Y1794D01*
X451Y1794D02*
X467Y1794D01*
X551Y1794D02*
X567Y1794D01*
X651Y1794D02*
X667Y1794D01*
X751Y1794D02*
X767Y1794D01*
X851Y1794D02*
X867Y1794D01*
X951Y1794D02*
X967Y1794D01*
X1051Y1794D02*
X1067Y1794D01*
X1151Y1794D02*
X1167Y1794D01*
X1451Y1794D02*
X1467Y1794D01*
X1551Y1794D02*
X1567Y1794D01*
X1651Y1794D02*
X1667Y1794D01*
X1751Y1794D02*
X1767Y1794D01*
X1851Y1794D02*
X1867Y1794D01*
X1951Y1794D02*
X1967Y1794D01*
X2051Y1794D02*
X2067Y1794D01*
X2151Y1794D02*
X2167Y1794D01*
X2251Y1794D02*
X2267Y1794D01*
X2351Y1794D02*
X2367Y1794D01*
X247Y1793D02*
X271Y1793D01*
X347Y1793D02*
X371Y1793D01*
X447Y1793D02*
X471Y1793D01*
X547Y1793D02*
X571Y1793D01*
X647Y1793D02*
X671Y1793D01*
X747Y1793D02*
X771Y1793D01*
X847Y1793D02*
X871Y1793D01*
X947Y1793D02*
X971Y1793D01*
X1047Y1793D02*
X1071Y1793D01*
X1147Y1793D02*
X1171Y1793D01*
X1447Y1793D02*
X1471Y1793D01*
X1547Y1793D02*
X1571Y1793D01*
X1647Y1793D02*
X1671Y1793D01*
X1747Y1793D02*
X1771Y1793D01*
X1847Y1793D02*
X1871Y1793D01*
X1947Y1793D02*
X1971Y1793D01*
X2047Y1793D02*
X2071Y1793D01*
X2147Y1793D02*
X2171Y1793D01*
X2247Y1793D02*
X2271Y1793D01*
X2347Y1793D02*
X2371Y1793D01*
X244Y1792D02*
X274Y1792D01*
X344Y1792D02*
X374Y1792D01*
X444Y1792D02*
X474Y1792D01*
X544Y1792D02*
X574Y1792D01*
X644Y1792D02*
X674Y1792D01*
X744Y1792D02*
X774Y1792D01*
X844Y1792D02*
X874Y1792D01*
X944Y1792D02*
X974Y1792D01*
X1044Y1792D02*
X1074Y1792D01*
X1144Y1792D02*
X1174Y1792D01*
X1444Y1792D02*
X1474Y1792D01*
X1544Y1792D02*
X1574Y1792D01*
X1644Y1792D02*
X1674Y1792D01*
X1744Y1792D02*
X1774Y1792D01*
X1844Y1792D02*
X1874Y1792D01*
X1944Y1792D02*
X1974Y1792D01*
X2044Y1792D02*
X2074Y1792D01*
X2144Y1792D02*
X2174Y1792D01*
X2244Y1792D02*
X2274Y1792D01*
X2344Y1792D02*
X2374Y1792D01*
X242Y1791D02*
X276Y1791D01*
X342Y1791D02*
X376Y1791D01*
X442Y1791D02*
X476Y1791D01*
X542Y1791D02*
X576Y1791D01*
X642Y1791D02*
X676Y1791D01*
X742Y1791D02*
X776Y1791D01*
X842Y1791D02*
X876Y1791D01*
X942Y1791D02*
X976Y1791D01*
X1042Y1791D02*
X1076Y1791D01*
X1142Y1791D02*
X1176Y1791D01*
X1442Y1791D02*
X1476Y1791D01*
X1542Y1791D02*
X1576Y1791D01*
X1642Y1791D02*
X1676Y1791D01*
X1742Y1791D02*
X1776Y1791D01*
X1842Y1791D02*
X1876Y1791D01*
X1942Y1791D02*
X1976Y1791D01*
X2042Y1791D02*
X2076Y1791D01*
X2142Y1791D02*
X2176Y1791D01*
X2242Y1791D02*
X2276Y1791D01*
X2342Y1791D02*
X2376Y1791D01*
X240Y1790D02*
X278Y1790D01*
X340Y1790D02*
X378Y1790D01*
X440Y1790D02*
X478Y1790D01*
X540Y1790D02*
X578Y1790D01*
X640Y1790D02*
X678Y1790D01*
X740Y1790D02*
X778Y1790D01*
X840Y1790D02*
X878Y1790D01*
X940Y1790D02*
X978Y1790D01*
X1040Y1790D02*
X1078Y1790D01*
X1140Y1790D02*
X1178Y1790D01*
X1440Y1790D02*
X1478Y1790D01*
X1540Y1790D02*
X1578Y1790D01*
X1640Y1790D02*
X1678Y1790D01*
X1740Y1790D02*
X1778Y1790D01*
X1840Y1790D02*
X1878Y1790D01*
X1940Y1790D02*
X1978Y1790D01*
X2040Y1790D02*
X2078Y1790D01*
X2140Y1790D02*
X2178Y1790D01*
X2240Y1790D02*
X2278Y1790D01*
X2340Y1790D02*
X2378Y1790D01*
X239Y1789D02*
X280Y1789D01*
X339Y1789D02*
X380Y1789D01*
X439Y1789D02*
X480Y1789D01*
X539Y1789D02*
X580Y1789D01*
X639Y1789D02*
X680Y1789D01*
X739Y1789D02*
X780Y1789D01*
X839Y1789D02*
X880Y1789D01*
X939Y1789D02*
X980Y1789D01*
X1039Y1789D02*
X1080Y1789D01*
X1139Y1789D02*
X1180Y1789D01*
X1439Y1789D02*
X1480Y1789D01*
X1539Y1789D02*
X1580Y1789D01*
X1639Y1789D02*
X1680Y1789D01*
X1739Y1789D02*
X1780Y1789D01*
X1839Y1789D02*
X1880Y1789D01*
X1939Y1789D02*
X1980Y1789D01*
X2039Y1789D02*
X2080Y1789D01*
X2139Y1789D02*
X2180Y1789D01*
X2239Y1789D02*
X2280Y1789D01*
X2339Y1789D02*
X2380Y1789D01*
X237Y1788D02*
X281Y1788D01*
X337Y1788D02*
X381Y1788D01*
X437Y1788D02*
X481Y1788D01*
X537Y1788D02*
X581Y1788D01*
X637Y1788D02*
X681Y1788D01*
X737Y1788D02*
X781Y1788D01*
X837Y1788D02*
X881Y1788D01*
X937Y1788D02*
X981Y1788D01*
X1037Y1788D02*
X1081Y1788D01*
X1137Y1788D02*
X1181Y1788D01*
X1437Y1788D02*
X1481Y1788D01*
X1537Y1788D02*
X1581Y1788D01*
X1637Y1788D02*
X1681Y1788D01*
X1737Y1788D02*
X1781Y1788D01*
X1837Y1788D02*
X1881Y1788D01*
X1937Y1788D02*
X1981Y1788D01*
X2037Y1788D02*
X2081Y1788D01*
X2137Y1788D02*
X2181Y1788D01*
X2237Y1788D02*
X2281Y1788D01*
X2337Y1788D02*
X2381Y1788D01*
X236Y1787D02*
X283Y1787D01*
X336Y1787D02*
X383Y1787D01*
X436Y1787D02*
X483Y1787D01*
X536Y1787D02*
X583Y1787D01*
X636Y1787D02*
X683Y1787D01*
X736Y1787D02*
X783Y1787D01*
X836Y1787D02*
X883Y1787D01*
X936Y1787D02*
X983Y1787D01*
X1036Y1787D02*
X1083Y1787D01*
X1136Y1787D02*
X1183Y1787D01*
X1436Y1787D02*
X1483Y1787D01*
X1536Y1787D02*
X1583Y1787D01*
X1636Y1787D02*
X1683Y1787D01*
X1736Y1787D02*
X1783Y1787D01*
X1836Y1787D02*
X1883Y1787D01*
X1936Y1787D02*
X1983Y1787D01*
X2036Y1787D02*
X2083Y1787D01*
X2136Y1787D02*
X2183Y1787D01*
X2236Y1787D02*
X2282Y1787D01*
X2336Y1787D02*
X2382Y1787D01*
X234Y1786D02*
X284Y1786D01*
X334Y1786D02*
X384Y1786D01*
X434Y1786D02*
X484Y1786D01*
X534Y1786D02*
X584Y1786D01*
X634Y1786D02*
X684Y1786D01*
X734Y1786D02*
X784Y1786D01*
X834Y1786D02*
X884Y1786D01*
X934Y1786D02*
X984Y1786D01*
X1034Y1786D02*
X1084Y1786D01*
X1134Y1786D02*
X1184Y1786D01*
X1434Y1786D02*
X1484Y1786D01*
X1534Y1786D02*
X1584Y1786D01*
X1634Y1786D02*
X1684Y1786D01*
X1734Y1786D02*
X1784Y1786D01*
X1834Y1786D02*
X1884Y1786D01*
X1934Y1786D02*
X1984Y1786D01*
X2034Y1786D02*
X2084Y1786D01*
X2134Y1786D02*
X2184Y1786D01*
X2234Y1786D02*
X2284Y1786D01*
X2334Y1786D02*
X2384Y1786D01*
X233Y1785D02*
X285Y1785D01*
X333Y1785D02*
X385Y1785D01*
X433Y1785D02*
X485Y1785D01*
X533Y1785D02*
X585Y1785D01*
X633Y1785D02*
X685Y1785D01*
X733Y1785D02*
X785Y1785D01*
X833Y1785D02*
X885Y1785D01*
X933Y1785D02*
X985Y1785D01*
X1033Y1785D02*
X1085Y1785D01*
X1133Y1785D02*
X1185Y1785D01*
X1433Y1785D02*
X1485Y1785D01*
X1533Y1785D02*
X1585Y1785D01*
X1633Y1785D02*
X1685Y1785D01*
X1733Y1785D02*
X1785Y1785D01*
X1833Y1785D02*
X1885Y1785D01*
X1933Y1785D02*
X1985Y1785D01*
X2033Y1785D02*
X2085Y1785D01*
X2133Y1785D02*
X2185Y1785D01*
X2233Y1785D02*
X2285Y1785D01*
X2333Y1785D02*
X2385Y1785D01*
X232Y1784D02*
X286Y1784D01*
X332Y1784D02*
X386Y1784D01*
X432Y1784D02*
X486Y1784D01*
X532Y1784D02*
X586Y1784D01*
X632Y1784D02*
X686Y1784D01*
X732Y1784D02*
X786Y1784D01*
X832Y1784D02*
X886Y1784D01*
X932Y1784D02*
X986Y1784D01*
X1032Y1784D02*
X1086Y1784D01*
X1132Y1784D02*
X1186Y1784D01*
X1432Y1784D02*
X1486Y1784D01*
X1532Y1784D02*
X1586Y1784D01*
X1632Y1784D02*
X1686Y1784D01*
X1732Y1784D02*
X1786Y1784D01*
X1832Y1784D02*
X1886Y1784D01*
X1932Y1784D02*
X1986Y1784D01*
X2032Y1784D02*
X2086Y1784D01*
X2132Y1784D02*
X2186Y1784D01*
X2232Y1784D02*
X2286Y1784D01*
X2332Y1784D02*
X2386Y1784D01*
X231Y1783D02*
X287Y1783D01*
X331Y1783D02*
X387Y1783D01*
X431Y1783D02*
X487Y1783D01*
X531Y1783D02*
X587Y1783D01*
X631Y1783D02*
X687Y1783D01*
X731Y1783D02*
X787Y1783D01*
X831Y1783D02*
X887Y1783D01*
X931Y1783D02*
X987Y1783D01*
X1031Y1783D02*
X1087Y1783D01*
X1131Y1783D02*
X1187Y1783D01*
X1431Y1783D02*
X1487Y1783D01*
X1531Y1783D02*
X1587Y1783D01*
X1631Y1783D02*
X1687Y1783D01*
X1731Y1783D02*
X1787Y1783D01*
X1831Y1783D02*
X1887Y1783D01*
X1931Y1783D02*
X1987Y1783D01*
X2031Y1783D02*
X2087Y1783D01*
X2131Y1783D02*
X2187Y1783D01*
X2231Y1783D02*
X2287Y1783D01*
X2331Y1783D02*
X2387Y1783D01*
X230Y1782D02*
X288Y1782D01*
X330Y1782D02*
X388Y1782D01*
X430Y1782D02*
X488Y1782D01*
X530Y1782D02*
X588Y1782D01*
X630Y1782D02*
X688Y1782D01*
X730Y1782D02*
X788Y1782D01*
X830Y1782D02*
X888Y1782D01*
X930Y1782D02*
X988Y1782D01*
X1030Y1782D02*
X1088Y1782D01*
X1130Y1782D02*
X1188Y1782D01*
X1430Y1782D02*
X1488Y1782D01*
X1530Y1782D02*
X1588Y1782D01*
X1630Y1782D02*
X1688Y1782D01*
X1730Y1782D02*
X1788Y1782D01*
X1830Y1782D02*
X1888Y1782D01*
X1930Y1782D02*
X1988Y1782D01*
X2030Y1782D02*
X2088Y1782D01*
X2130Y1782D02*
X2188Y1782D01*
X2230Y1782D02*
X2288Y1782D01*
X2330Y1782D02*
X2388Y1782D01*
X229Y1781D02*
X289Y1781D01*
X329Y1781D02*
X389Y1781D01*
X429Y1781D02*
X489Y1781D01*
X529Y1781D02*
X589Y1781D01*
X629Y1781D02*
X689Y1781D01*
X729Y1781D02*
X789Y1781D01*
X829Y1781D02*
X889Y1781D01*
X929Y1781D02*
X989Y1781D01*
X1029Y1781D02*
X1089Y1781D01*
X1129Y1781D02*
X1189Y1781D01*
X1429Y1781D02*
X1489Y1781D01*
X1529Y1781D02*
X1589Y1781D01*
X1629Y1781D02*
X1689Y1781D01*
X1729Y1781D02*
X1789Y1781D01*
X1829Y1781D02*
X1889Y1781D01*
X1929Y1781D02*
X1989Y1781D01*
X2029Y1781D02*
X2089Y1781D01*
X2129Y1781D02*
X2189Y1781D01*
X2229Y1781D02*
X2289Y1781D01*
X2329Y1781D02*
X2389Y1781D01*
X228Y1780D02*
X290Y1780D01*
X328Y1780D02*
X390Y1780D01*
X428Y1780D02*
X490Y1780D01*
X528Y1780D02*
X590Y1780D01*
X628Y1780D02*
X690Y1780D01*
X728Y1780D02*
X790Y1780D01*
X828Y1780D02*
X890Y1780D01*
X928Y1780D02*
X990Y1780D01*
X1028Y1780D02*
X1090Y1780D01*
X1128Y1780D02*
X1190Y1780D01*
X1428Y1780D02*
X1490Y1780D01*
X1528Y1780D02*
X1590Y1780D01*
X1628Y1780D02*
X1690Y1780D01*
X1728Y1780D02*
X1790Y1780D01*
X1828Y1780D02*
X1890Y1780D01*
X1928Y1780D02*
X1990Y1780D01*
X2028Y1780D02*
X2090Y1780D01*
X2128Y1780D02*
X2190Y1780D01*
X2228Y1780D02*
X2290Y1780D01*
X2328Y1780D02*
X2390Y1780D01*
X228Y1779D02*
X291Y1779D01*
X328Y1779D02*
X391Y1779D01*
X428Y1779D02*
X491Y1779D01*
X528Y1779D02*
X591Y1779D01*
X628Y1779D02*
X691Y1779D01*
X728Y1779D02*
X791Y1779D01*
X828Y1779D02*
X891Y1779D01*
X928Y1779D02*
X991Y1779D01*
X1028Y1779D02*
X1091Y1779D01*
X1128Y1779D02*
X1191Y1779D01*
X1428Y1779D02*
X1491Y1779D01*
X1528Y1779D02*
X1591Y1779D01*
X1628Y1779D02*
X1691Y1779D01*
X1728Y1779D02*
X1791Y1779D01*
X1828Y1779D02*
X1891Y1779D01*
X1928Y1779D02*
X1990Y1779D01*
X2028Y1779D02*
X2090Y1779D01*
X2128Y1779D02*
X2190Y1779D01*
X2228Y1779D02*
X2290Y1779D01*
X2328Y1779D02*
X2390Y1779D01*
X227Y1778D02*
X291Y1778D01*
X327Y1778D02*
X391Y1778D01*
X427Y1778D02*
X491Y1778D01*
X527Y1778D02*
X591Y1778D01*
X627Y1778D02*
X691Y1778D01*
X727Y1778D02*
X791Y1778D01*
X827Y1778D02*
X891Y1778D01*
X927Y1778D02*
X991Y1778D01*
X1027Y1778D02*
X1091Y1778D01*
X1127Y1778D02*
X1191Y1778D01*
X1427Y1778D02*
X1491Y1778D01*
X1527Y1778D02*
X1591Y1778D01*
X1627Y1778D02*
X1691Y1778D01*
X1727Y1778D02*
X1791Y1778D01*
X1827Y1778D02*
X1891Y1778D01*
X1927Y1778D02*
X1991Y1778D01*
X2027Y1778D02*
X2091Y1778D01*
X2127Y1778D02*
X2191Y1778D01*
X2227Y1778D02*
X2291Y1778D01*
X2327Y1778D02*
X2391Y1778D01*
X226Y1777D02*
X292Y1777D01*
X326Y1777D02*
X392Y1777D01*
X426Y1777D02*
X492Y1777D01*
X526Y1777D02*
X592Y1777D01*
X626Y1777D02*
X692Y1777D01*
X726Y1777D02*
X792Y1777D01*
X826Y1777D02*
X892Y1777D01*
X926Y1777D02*
X992Y1777D01*
X1026Y1777D02*
X1092Y1777D01*
X1126Y1777D02*
X1192Y1777D01*
X1426Y1777D02*
X1492Y1777D01*
X1526Y1777D02*
X1592Y1777D01*
X1626Y1777D02*
X1692Y1777D01*
X1726Y1777D02*
X1792Y1777D01*
X1826Y1777D02*
X1892Y1777D01*
X1926Y1777D02*
X1992Y1777D01*
X2026Y1777D02*
X2092Y1777D01*
X2126Y1777D02*
X2192Y1777D01*
X2226Y1777D02*
X2292Y1777D01*
X2326Y1777D02*
X2392Y1777D01*
X226Y1776D02*
X293Y1776D01*
X326Y1776D02*
X393Y1776D01*
X426Y1776D02*
X493Y1776D01*
X526Y1776D02*
X593Y1776D01*
X626Y1776D02*
X693Y1776D01*
X726Y1776D02*
X793Y1776D01*
X826Y1776D02*
X893Y1776D01*
X926Y1776D02*
X993Y1776D01*
X1026Y1776D02*
X1093Y1776D01*
X1126Y1776D02*
X1193Y1776D01*
X1426Y1776D02*
X1493Y1776D01*
X1526Y1776D02*
X1593Y1776D01*
X1626Y1776D02*
X1693Y1776D01*
X1726Y1776D02*
X1793Y1776D01*
X1826Y1776D02*
X1893Y1776D01*
X1926Y1776D02*
X1993Y1776D01*
X2026Y1776D02*
X2093Y1776D01*
X2126Y1776D02*
X2193Y1776D01*
X2226Y1776D02*
X2293Y1776D01*
X2326Y1776D02*
X2393Y1776D01*
X225Y1775D02*
X293Y1775D01*
X325Y1775D02*
X393Y1775D01*
X425Y1775D02*
X493Y1775D01*
X525Y1775D02*
X593Y1775D01*
X625Y1775D02*
X693Y1775D01*
X725Y1775D02*
X793Y1775D01*
X825Y1775D02*
X893Y1775D01*
X925Y1775D02*
X993Y1775D01*
X1025Y1775D02*
X1093Y1775D01*
X1125Y1775D02*
X1193Y1775D01*
X1425Y1775D02*
X1493Y1775D01*
X1525Y1775D02*
X1593Y1775D01*
X1625Y1775D02*
X1693Y1775D01*
X1725Y1775D02*
X1793Y1775D01*
X1825Y1775D02*
X1893Y1775D01*
X1925Y1775D02*
X1993Y1775D01*
X2025Y1775D02*
X2093Y1775D01*
X2125Y1775D02*
X2193Y1775D01*
X2225Y1775D02*
X2293Y1775D01*
X2325Y1775D02*
X2393Y1775D01*
X224Y1774D02*
X294Y1774D01*
X324Y1774D02*
X394Y1774D01*
X424Y1774D02*
X494Y1774D01*
X524Y1774D02*
X594Y1774D01*
X624Y1774D02*
X694Y1774D01*
X724Y1774D02*
X794Y1774D01*
X824Y1774D02*
X894Y1774D01*
X924Y1774D02*
X994Y1774D01*
X1024Y1774D02*
X1094Y1774D01*
X1124Y1774D02*
X1194Y1774D01*
X1424Y1774D02*
X1494Y1774D01*
X1524Y1774D02*
X1594Y1774D01*
X1624Y1774D02*
X1694Y1774D01*
X1724Y1774D02*
X1794Y1774D01*
X1824Y1774D02*
X1894Y1774D01*
X1924Y1774D02*
X1994Y1774D01*
X2024Y1774D02*
X2094Y1774D01*
X2124Y1774D02*
X2194Y1774D01*
X2224Y1774D02*
X2294Y1774D01*
X2324Y1774D02*
X2394Y1774D01*
X224Y1773D02*
X294Y1773D01*
X324Y1773D02*
X394Y1773D01*
X424Y1773D02*
X494Y1773D01*
X524Y1773D02*
X594Y1773D01*
X624Y1773D02*
X694Y1773D01*
X724Y1773D02*
X794Y1773D01*
X824Y1773D02*
X894Y1773D01*
X924Y1773D02*
X994Y1773D01*
X1024Y1773D02*
X1094Y1773D01*
X1124Y1773D02*
X1194Y1773D01*
X1424Y1773D02*
X1494Y1773D01*
X1524Y1773D02*
X1594Y1773D01*
X1624Y1773D02*
X1694Y1773D01*
X1724Y1773D02*
X1794Y1773D01*
X1824Y1773D02*
X1894Y1773D01*
X1924Y1773D02*
X1994Y1773D01*
X2024Y1773D02*
X2094Y1773D01*
X2124Y1773D02*
X2194Y1773D01*
X2224Y1773D02*
X2294Y1773D01*
X2324Y1773D02*
X2394Y1773D01*
X223Y1772D02*
X295Y1772D01*
X323Y1772D02*
X395Y1772D01*
X423Y1772D02*
X495Y1772D01*
X523Y1772D02*
X595Y1772D01*
X623Y1772D02*
X695Y1772D01*
X723Y1772D02*
X795Y1772D01*
X823Y1772D02*
X895Y1772D01*
X923Y1772D02*
X995Y1772D01*
X1023Y1772D02*
X1095Y1772D01*
X1123Y1772D02*
X1195Y1772D01*
X1423Y1772D02*
X1495Y1772D01*
X1523Y1772D02*
X1595Y1772D01*
X1623Y1772D02*
X1695Y1772D01*
X1723Y1772D02*
X1795Y1772D01*
X1823Y1772D02*
X1895Y1772D01*
X1923Y1772D02*
X1995Y1772D01*
X2023Y1772D02*
X2095Y1772D01*
X2123Y1772D02*
X2195Y1772D01*
X2223Y1772D02*
X2295Y1772D01*
X2323Y1772D02*
X2395Y1772D01*
X223Y1771D02*
X295Y1771D01*
X323Y1771D02*
X395Y1771D01*
X423Y1771D02*
X495Y1771D01*
X523Y1771D02*
X595Y1771D01*
X623Y1771D02*
X695Y1771D01*
X723Y1771D02*
X795Y1771D01*
X823Y1771D02*
X895Y1771D01*
X923Y1771D02*
X995Y1771D01*
X1023Y1771D02*
X1095Y1771D01*
X1123Y1771D02*
X1195Y1771D01*
X1423Y1771D02*
X1495Y1771D01*
X1523Y1771D02*
X1595Y1771D01*
X1623Y1771D02*
X1695Y1771D01*
X1723Y1771D02*
X1795Y1771D01*
X1823Y1771D02*
X1895Y1771D01*
X1923Y1771D02*
X1995Y1771D01*
X2023Y1771D02*
X2095Y1771D01*
X2123Y1771D02*
X2195Y1771D01*
X2223Y1771D02*
X2295Y1771D01*
X2323Y1771D02*
X2395Y1771D01*
X223Y1770D02*
X296Y1770D01*
X323Y1770D02*
X396Y1770D01*
X423Y1770D02*
X496Y1770D01*
X523Y1770D02*
X596Y1770D01*
X623Y1770D02*
X696Y1770D01*
X723Y1770D02*
X796Y1770D01*
X823Y1770D02*
X896Y1770D01*
X923Y1770D02*
X996Y1770D01*
X1023Y1770D02*
X1096Y1770D01*
X1123Y1770D02*
X1196Y1770D01*
X1423Y1770D02*
X1496Y1770D01*
X1523Y1770D02*
X1596Y1770D01*
X1623Y1770D02*
X1696Y1770D01*
X1723Y1770D02*
X1796Y1770D01*
X1823Y1770D02*
X1896Y1770D01*
X1923Y1770D02*
X1996Y1770D01*
X2022Y1770D02*
X2096Y1770D01*
X2122Y1770D02*
X2196Y1770D01*
X2222Y1770D02*
X2296Y1770D01*
X2322Y1770D02*
X2396Y1770D01*
X222Y1769D02*
X296Y1769D01*
X322Y1769D02*
X396Y1769D01*
X422Y1769D02*
X496Y1769D01*
X522Y1769D02*
X596Y1769D01*
X622Y1769D02*
X696Y1769D01*
X722Y1769D02*
X796Y1769D01*
X822Y1769D02*
X896Y1769D01*
X922Y1769D02*
X996Y1769D01*
X1022Y1769D02*
X1096Y1769D01*
X1122Y1769D02*
X1196Y1769D01*
X1422Y1769D02*
X1496Y1769D01*
X1522Y1769D02*
X1596Y1769D01*
X1622Y1769D02*
X1696Y1769D01*
X1722Y1769D02*
X1796Y1769D01*
X1822Y1769D02*
X1896Y1769D01*
X1922Y1769D02*
X1996Y1769D01*
X2022Y1769D02*
X2096Y1769D01*
X2122Y1769D02*
X2196Y1769D01*
X2222Y1769D02*
X2296Y1769D01*
X2322Y1769D02*
X2396Y1769D01*
X222Y1768D02*
X296Y1768D01*
X322Y1768D02*
X396Y1768D01*
X422Y1768D02*
X496Y1768D01*
X522Y1768D02*
X596Y1768D01*
X622Y1768D02*
X696Y1768D01*
X722Y1768D02*
X796Y1768D01*
X822Y1768D02*
X896Y1768D01*
X922Y1768D02*
X996Y1768D01*
X1022Y1768D02*
X1096Y1768D01*
X1122Y1768D02*
X1196Y1768D01*
X1422Y1768D02*
X1496Y1768D01*
X1522Y1768D02*
X1596Y1768D01*
X1622Y1768D02*
X1696Y1768D01*
X1722Y1768D02*
X1796Y1768D01*
X1822Y1768D02*
X1896Y1768D01*
X1922Y1768D02*
X1996Y1768D01*
X2022Y1768D02*
X2096Y1768D01*
X2122Y1768D02*
X2196Y1768D01*
X2222Y1768D02*
X2296Y1768D01*
X2322Y1768D02*
X2396Y1768D01*
X222Y1767D02*
X297Y1767D01*
X322Y1767D02*
X397Y1767D01*
X422Y1767D02*
X497Y1767D01*
X522Y1767D02*
X597Y1767D01*
X621Y1767D02*
X697Y1767D01*
X721Y1767D02*
X797Y1767D01*
X821Y1767D02*
X897Y1767D01*
X921Y1767D02*
X997Y1767D01*
X1021Y1767D02*
X1097Y1767D01*
X1121Y1767D02*
X1197Y1767D01*
X1421Y1767D02*
X1497Y1767D01*
X1521Y1767D02*
X1597Y1767D01*
X1621Y1767D02*
X1697Y1767D01*
X1721Y1767D02*
X1797Y1767D01*
X1821Y1767D02*
X1897Y1767D01*
X1921Y1767D02*
X1997Y1767D01*
X2021Y1767D02*
X2097Y1767D01*
X2121Y1767D02*
X2197Y1767D01*
X2221Y1767D02*
X2297Y1767D01*
X2321Y1767D02*
X2397Y1767D01*
X221Y1766D02*
X297Y1766D01*
X321Y1766D02*
X397Y1766D01*
X421Y1766D02*
X497Y1766D01*
X521Y1766D02*
X597Y1766D01*
X621Y1766D02*
X697Y1766D01*
X721Y1766D02*
X797Y1766D01*
X821Y1766D02*
X897Y1766D01*
X921Y1766D02*
X997Y1766D01*
X1021Y1766D02*
X1097Y1766D01*
X1121Y1766D02*
X1197Y1766D01*
X1421Y1766D02*
X1497Y1766D01*
X1521Y1766D02*
X1597Y1766D01*
X1621Y1766D02*
X1697Y1766D01*
X1721Y1766D02*
X1797Y1766D01*
X1821Y1766D02*
X1897Y1766D01*
X1921Y1766D02*
X1997Y1766D01*
X2021Y1766D02*
X2097Y1766D01*
X2121Y1766D02*
X2197Y1766D01*
X2221Y1766D02*
X2297Y1766D01*
X2321Y1766D02*
X2397Y1766D01*
X221Y1765D02*
X297Y1765D01*
X321Y1765D02*
X397Y1765D01*
X421Y1765D02*
X497Y1765D01*
X521Y1765D02*
X597Y1765D01*
X621Y1765D02*
X697Y1765D01*
X721Y1765D02*
X797Y1765D01*
X821Y1765D02*
X897Y1765D01*
X921Y1765D02*
X997Y1765D01*
X1021Y1765D02*
X1097Y1765D01*
X1121Y1765D02*
X1197Y1765D01*
X1421Y1765D02*
X1497Y1765D01*
X1521Y1765D02*
X1597Y1765D01*
X1621Y1765D02*
X1697Y1765D01*
X1721Y1765D02*
X1797Y1765D01*
X1821Y1765D02*
X1897Y1765D01*
X1921Y1765D02*
X1997Y1765D01*
X2021Y1765D02*
X2097Y1765D01*
X2121Y1765D02*
X2197Y1765D01*
X2221Y1765D02*
X2297Y1765D01*
X2321Y1765D02*
X2397Y1765D01*
X221Y1764D02*
X298Y1764D01*
X321Y1764D02*
X398Y1764D01*
X421Y1764D02*
X498Y1764D01*
X521Y1764D02*
X598Y1764D01*
X621Y1764D02*
X698Y1764D01*
X721Y1764D02*
X798Y1764D01*
X821Y1764D02*
X898Y1764D01*
X921Y1764D02*
X998Y1764D01*
X1021Y1764D02*
X1097Y1764D01*
X1121Y1764D02*
X1197Y1764D01*
X1421Y1764D02*
X1497Y1764D01*
X1521Y1764D02*
X1597Y1764D01*
X1621Y1764D02*
X1697Y1764D01*
X1721Y1764D02*
X1797Y1764D01*
X1821Y1764D02*
X1897Y1764D01*
X1921Y1764D02*
X1997Y1764D01*
X2021Y1764D02*
X2097Y1764D01*
X2121Y1764D02*
X2197Y1764D01*
X2221Y1764D02*
X2297Y1764D01*
X2321Y1764D02*
X2397Y1764D01*
X221Y1763D02*
X298Y1763D01*
X321Y1763D02*
X398Y1763D01*
X421Y1763D02*
X498Y1763D01*
X521Y1763D02*
X598Y1763D01*
X621Y1763D02*
X698Y1763D01*
X720Y1763D02*
X798Y1763D01*
X820Y1763D02*
X898Y1763D01*
X920Y1763D02*
X998Y1763D01*
X1020Y1763D02*
X1098Y1763D01*
X1120Y1763D02*
X1198Y1763D01*
X1420Y1763D02*
X1498Y1763D01*
X1520Y1763D02*
X1598Y1763D01*
X1620Y1763D02*
X1698Y1763D01*
X1720Y1763D02*
X1798Y1763D01*
X1820Y1763D02*
X1898Y1763D01*
X1920Y1763D02*
X1998Y1763D01*
X2020Y1763D02*
X2098Y1763D01*
X2120Y1763D02*
X2198Y1763D01*
X2220Y1763D02*
X2298Y1763D01*
X2320Y1763D02*
X2398Y1763D01*
X220Y1762D02*
X298Y1762D01*
X320Y1762D02*
X398Y1762D01*
X420Y1762D02*
X498Y1762D01*
X520Y1762D02*
X598Y1762D01*
X620Y1762D02*
X698Y1762D01*
X720Y1762D02*
X798Y1762D01*
X820Y1762D02*
X898Y1762D01*
X920Y1762D02*
X998Y1762D01*
X1020Y1762D02*
X1098Y1762D01*
X1120Y1762D02*
X1198Y1762D01*
X1420Y1762D02*
X1498Y1762D01*
X1520Y1762D02*
X1598Y1762D01*
X1620Y1762D02*
X1698Y1762D01*
X1720Y1762D02*
X1798Y1762D01*
X1820Y1762D02*
X1898Y1762D01*
X1920Y1762D02*
X1998Y1762D01*
X2020Y1762D02*
X2098Y1762D01*
X2120Y1762D02*
X2198Y1762D01*
X2220Y1762D02*
X2298Y1762D01*
X2320Y1762D02*
X2398Y1762D01*
X220Y1761D02*
X298Y1761D01*
X320Y1761D02*
X398Y1761D01*
X420Y1761D02*
X498Y1761D01*
X520Y1761D02*
X598Y1761D01*
X620Y1761D02*
X698Y1761D01*
X720Y1761D02*
X798Y1761D01*
X820Y1761D02*
X898Y1761D01*
X920Y1761D02*
X998Y1761D01*
X1020Y1761D02*
X1098Y1761D01*
X1120Y1761D02*
X1198Y1761D01*
X1420Y1761D02*
X1498Y1761D01*
X1520Y1761D02*
X1598Y1761D01*
X1620Y1761D02*
X1698Y1761D01*
X1720Y1761D02*
X1798Y1761D01*
X1820Y1761D02*
X1898Y1761D01*
X1920Y1761D02*
X1998Y1761D01*
X2020Y1761D02*
X2098Y1761D01*
X2120Y1761D02*
X2198Y1761D01*
X2220Y1761D02*
X2298Y1761D01*
X2320Y1761D02*
X2398Y1761D01*
X220Y1760D02*
X298Y1760D01*
X320Y1760D02*
X398Y1760D01*
X420Y1760D02*
X498Y1760D01*
X520Y1760D02*
X598Y1760D01*
X620Y1760D02*
X698Y1760D01*
X720Y1760D02*
X798Y1760D01*
X820Y1760D02*
X898Y1760D01*
X920Y1760D02*
X998Y1760D01*
X1020Y1760D02*
X1098Y1760D01*
X1120Y1760D02*
X1198Y1760D01*
X1420Y1760D02*
X1498Y1760D01*
X1520Y1760D02*
X1598Y1760D01*
X1620Y1760D02*
X1698Y1760D01*
X1720Y1760D02*
X1798Y1760D01*
X1820Y1760D02*
X1898Y1760D01*
X1920Y1760D02*
X1998Y1760D01*
X2020Y1760D02*
X2098Y1760D01*
X2120Y1760D02*
X2198Y1760D01*
X2220Y1760D02*
X2298Y1760D01*
X2320Y1760D02*
X2398Y1760D01*
X220Y1759D02*
X298Y1759D01*
X320Y1759D02*
X398Y1759D01*
X420Y1759D02*
X498Y1759D01*
X520Y1759D02*
X598Y1759D01*
X620Y1759D02*
X698Y1759D01*
X720Y1759D02*
X798Y1759D01*
X820Y1759D02*
X898Y1759D01*
X920Y1759D02*
X998Y1759D01*
X1020Y1759D02*
X1098Y1759D01*
X1120Y1759D02*
X1198Y1759D01*
X1420Y1759D02*
X1498Y1759D01*
X1520Y1759D02*
X1598Y1759D01*
X1620Y1759D02*
X1698Y1759D01*
X1720Y1759D02*
X1798Y1759D01*
X1820Y1759D02*
X1898Y1759D01*
X1920Y1759D02*
X1998Y1759D01*
X2020Y1759D02*
X2098Y1759D01*
X2120Y1759D02*
X2198Y1759D01*
X2220Y1759D02*
X2298Y1759D01*
X2320Y1759D02*
X2398Y1759D01*
X220Y1758D02*
X298Y1758D01*
X320Y1758D02*
X398Y1758D01*
X420Y1758D02*
X498Y1758D01*
X520Y1758D02*
X598Y1758D01*
X620Y1758D02*
X698Y1758D01*
X720Y1758D02*
X798Y1758D01*
X820Y1758D02*
X898Y1758D01*
X920Y1758D02*
X998Y1758D01*
X1020Y1758D02*
X1098Y1758D01*
X1120Y1758D02*
X1198Y1758D01*
X1420Y1758D02*
X1498Y1758D01*
X1520Y1758D02*
X1598Y1758D01*
X1620Y1758D02*
X1698Y1758D01*
X1720Y1758D02*
X1798Y1758D01*
X1820Y1758D02*
X1898Y1758D01*
X1920Y1758D02*
X1998Y1758D01*
X2020Y1758D02*
X2098Y1758D01*
X2120Y1758D02*
X2198Y1758D01*
X2220Y1758D02*
X2298Y1758D01*
X2320Y1758D02*
X2398Y1758D01*
X220Y1757D02*
X299Y1757D01*
X320Y1757D02*
X399Y1757D01*
X420Y1757D02*
X499Y1757D01*
X520Y1757D02*
X599Y1757D01*
X620Y1757D02*
X699Y1757D01*
X720Y1757D02*
X799Y1757D01*
X820Y1757D02*
X899Y1757D01*
X920Y1757D02*
X999Y1757D01*
X1020Y1757D02*
X1098Y1757D01*
X1120Y1757D02*
X1198Y1757D01*
X1420Y1757D02*
X1498Y1757D01*
X1520Y1757D02*
X1598Y1757D01*
X1620Y1757D02*
X1698Y1757D01*
X1720Y1757D02*
X1798Y1757D01*
X1820Y1757D02*
X1898Y1757D01*
X1920Y1757D02*
X1998Y1757D01*
X2020Y1757D02*
X2098Y1757D01*
X2120Y1757D02*
X2198Y1757D01*
X2220Y1757D02*
X2298Y1757D01*
X2320Y1757D02*
X2398Y1757D01*
X220Y1756D02*
X299Y1756D01*
X320Y1756D02*
X399Y1756D01*
X420Y1756D02*
X499Y1756D01*
X520Y1756D02*
X599Y1756D01*
X620Y1756D02*
X699Y1756D01*
X720Y1756D02*
X799Y1756D01*
X820Y1756D02*
X899Y1756D01*
X920Y1756D02*
X999Y1756D01*
X1020Y1756D02*
X1099Y1756D01*
X1120Y1756D02*
X1199Y1756D01*
X1420Y1756D02*
X1499Y1756D01*
X1520Y1756D02*
X1599Y1756D01*
X1620Y1756D02*
X1699Y1756D01*
X1720Y1756D02*
X1799Y1756D01*
X1820Y1756D02*
X1899Y1756D01*
X1920Y1756D02*
X1999Y1756D01*
X2020Y1756D02*
X2099Y1756D01*
X2120Y1756D02*
X2199Y1756D01*
X2220Y1756D02*
X2299Y1756D01*
X2320Y1756D02*
X2399Y1756D01*
X220Y1755D02*
X299Y1755D01*
X320Y1755D02*
X399Y1755D01*
X420Y1755D02*
X499Y1755D01*
X520Y1755D02*
X599Y1755D01*
X620Y1755D02*
X699Y1755D01*
X720Y1755D02*
X799Y1755D01*
X820Y1755D02*
X899Y1755D01*
X920Y1755D02*
X999Y1755D01*
X1020Y1755D02*
X1099Y1755D01*
X1120Y1755D02*
X1199Y1755D01*
X1420Y1755D02*
X1499Y1755D01*
X1520Y1755D02*
X1599Y1755D01*
X1620Y1755D02*
X1699Y1755D01*
X1720Y1755D02*
X1799Y1755D01*
X1820Y1755D02*
X1899Y1755D01*
X1920Y1755D02*
X1999Y1755D01*
X2020Y1755D02*
X2099Y1755D01*
X2120Y1755D02*
X2199Y1755D01*
X2220Y1755D02*
X2299Y1755D01*
X2320Y1755D02*
X2399Y1755D01*
X220Y1754D02*
X299Y1754D01*
X320Y1754D02*
X399Y1754D01*
X420Y1754D02*
X499Y1754D01*
X520Y1754D02*
X599Y1754D01*
X620Y1754D02*
X699Y1754D01*
X720Y1754D02*
X799Y1754D01*
X820Y1754D02*
X899Y1754D01*
X920Y1754D02*
X999Y1754D01*
X1020Y1754D02*
X1099Y1754D01*
X1120Y1754D02*
X1199Y1754D01*
X1420Y1754D02*
X1499Y1754D01*
X1520Y1754D02*
X1599Y1754D01*
X1620Y1754D02*
X1699Y1754D01*
X1720Y1754D02*
X1799Y1754D01*
X1820Y1754D02*
X1899Y1754D01*
X1920Y1754D02*
X1999Y1754D01*
X2020Y1754D02*
X2099Y1754D01*
X2120Y1754D02*
X2199Y1754D01*
X2220Y1754D02*
X2299Y1754D01*
X2320Y1754D02*
X2399Y1754D01*
X220Y1753D02*
X299Y1753D01*
X320Y1753D02*
X399Y1753D01*
X420Y1753D02*
X499Y1753D01*
X520Y1753D02*
X599Y1753D01*
X620Y1753D02*
X699Y1753D01*
X720Y1753D02*
X799Y1753D01*
X820Y1753D02*
X899Y1753D01*
X920Y1753D02*
X998Y1753D01*
X1020Y1753D02*
X1098Y1753D01*
X1120Y1753D02*
X1198Y1753D01*
X1420Y1753D02*
X1498Y1753D01*
X1520Y1753D02*
X1598Y1753D01*
X1620Y1753D02*
X1698Y1753D01*
X1720Y1753D02*
X1798Y1753D01*
X1820Y1753D02*
X1898Y1753D01*
X1920Y1753D02*
X1998Y1753D01*
X2020Y1753D02*
X2098Y1753D01*
X2120Y1753D02*
X2198Y1753D01*
X2220Y1753D02*
X2298Y1753D01*
X2320Y1753D02*
X2398Y1753D01*
X220Y1752D02*
X298Y1752D01*
X320Y1752D02*
X398Y1752D01*
X420Y1752D02*
X498Y1752D01*
X520Y1752D02*
X598Y1752D01*
X620Y1752D02*
X698Y1752D01*
X720Y1752D02*
X798Y1752D01*
X820Y1752D02*
X898Y1752D01*
X920Y1752D02*
X998Y1752D01*
X1020Y1752D02*
X1098Y1752D01*
X1120Y1752D02*
X1198Y1752D01*
X1420Y1752D02*
X1498Y1752D01*
X1520Y1752D02*
X1598Y1752D01*
X1620Y1752D02*
X1698Y1752D01*
X1720Y1752D02*
X1798Y1752D01*
X1820Y1752D02*
X1898Y1752D01*
X1920Y1752D02*
X1998Y1752D01*
X2020Y1752D02*
X2098Y1752D01*
X2120Y1752D02*
X2198Y1752D01*
X2220Y1752D02*
X2298Y1752D01*
X2320Y1752D02*
X2398Y1752D01*
X220Y1751D02*
X298Y1751D01*
X320Y1751D02*
X398Y1751D01*
X420Y1751D02*
X498Y1751D01*
X520Y1751D02*
X598Y1751D01*
X620Y1751D02*
X698Y1751D01*
X720Y1751D02*
X798Y1751D01*
X820Y1751D02*
X898Y1751D01*
X920Y1751D02*
X998Y1751D01*
X1020Y1751D02*
X1098Y1751D01*
X1120Y1751D02*
X1198Y1751D01*
X1420Y1751D02*
X1498Y1751D01*
X1520Y1751D02*
X1598Y1751D01*
X1620Y1751D02*
X1698Y1751D01*
X1720Y1751D02*
X1798Y1751D01*
X1820Y1751D02*
X1898Y1751D01*
X1920Y1751D02*
X1998Y1751D01*
X2020Y1751D02*
X2098Y1751D01*
X2120Y1751D02*
X2198Y1751D01*
X2220Y1751D02*
X2298Y1751D01*
X2320Y1751D02*
X2398Y1751D01*
X220Y1750D02*
X298Y1750D01*
X320Y1750D02*
X398Y1750D01*
X420Y1750D02*
X498Y1750D01*
X520Y1750D02*
X598Y1750D01*
X620Y1750D02*
X698Y1750D01*
X720Y1750D02*
X798Y1750D01*
X820Y1750D02*
X898Y1750D01*
X920Y1750D02*
X998Y1750D01*
X1020Y1750D02*
X1098Y1750D01*
X1120Y1750D02*
X1198Y1750D01*
X1420Y1750D02*
X1498Y1750D01*
X1520Y1750D02*
X1598Y1750D01*
X1620Y1750D02*
X1698Y1750D01*
X1720Y1750D02*
X1798Y1750D01*
X1820Y1750D02*
X1898Y1750D01*
X1920Y1750D02*
X1998Y1750D01*
X2020Y1750D02*
X2098Y1750D01*
X2120Y1750D02*
X2198Y1750D01*
X2220Y1750D02*
X2298Y1750D01*
X2320Y1750D02*
X2398Y1750D01*
X220Y1749D02*
X298Y1749D01*
X320Y1749D02*
X398Y1749D01*
X420Y1749D02*
X498Y1749D01*
X520Y1749D02*
X598Y1749D01*
X620Y1749D02*
X698Y1749D01*
X720Y1749D02*
X798Y1749D01*
X820Y1749D02*
X898Y1749D01*
X920Y1749D02*
X998Y1749D01*
X1020Y1749D02*
X1098Y1749D01*
X1120Y1749D02*
X1198Y1749D01*
X1420Y1749D02*
X1498Y1749D01*
X1520Y1749D02*
X1598Y1749D01*
X1620Y1749D02*
X1698Y1749D01*
X1720Y1749D02*
X1798Y1749D01*
X1820Y1749D02*
X1898Y1749D01*
X1920Y1749D02*
X1998Y1749D01*
X2020Y1749D02*
X2098Y1749D01*
X2120Y1749D02*
X2198Y1749D01*
X2220Y1749D02*
X2298Y1749D01*
X2320Y1749D02*
X2398Y1749D01*
X220Y1748D02*
X298Y1748D01*
X320Y1748D02*
X398Y1748D01*
X420Y1748D02*
X498Y1748D01*
X520Y1748D02*
X598Y1748D01*
X620Y1748D02*
X698Y1748D01*
X720Y1748D02*
X798Y1748D01*
X820Y1748D02*
X898Y1748D01*
X920Y1748D02*
X998Y1748D01*
X1020Y1748D02*
X1098Y1748D01*
X1120Y1748D02*
X1198Y1748D01*
X1420Y1748D02*
X1498Y1748D01*
X1520Y1748D02*
X1598Y1748D01*
X1620Y1748D02*
X1698Y1748D01*
X1720Y1748D02*
X1798Y1748D01*
X1820Y1748D02*
X1898Y1748D01*
X1920Y1748D02*
X1998Y1748D01*
X2020Y1748D02*
X2098Y1748D01*
X2120Y1748D02*
X2198Y1748D01*
X2220Y1748D02*
X2298Y1748D01*
X2320Y1748D02*
X2398Y1748D01*
X221Y1747D02*
X298Y1747D01*
X321Y1747D02*
X398Y1747D01*
X421Y1747D02*
X498Y1747D01*
X521Y1747D02*
X598Y1747D01*
X621Y1747D02*
X698Y1747D01*
X721Y1747D02*
X798Y1747D01*
X821Y1747D02*
X898Y1747D01*
X921Y1747D02*
X998Y1747D01*
X1021Y1747D02*
X1098Y1747D01*
X1121Y1747D02*
X1198Y1747D01*
X1420Y1747D02*
X1498Y1747D01*
X1520Y1747D02*
X1598Y1747D01*
X1620Y1747D02*
X1698Y1747D01*
X1720Y1747D02*
X1798Y1747D01*
X1820Y1747D02*
X1898Y1747D01*
X1920Y1747D02*
X1998Y1747D01*
X2020Y1747D02*
X2098Y1747D01*
X2120Y1747D02*
X2198Y1747D01*
X2220Y1747D02*
X2298Y1747D01*
X2320Y1747D02*
X2398Y1747D01*
X221Y1746D02*
X297Y1746D01*
X321Y1746D02*
X397Y1746D01*
X421Y1746D02*
X497Y1746D01*
X521Y1746D02*
X597Y1746D01*
X621Y1746D02*
X697Y1746D01*
X721Y1746D02*
X797Y1746D01*
X821Y1746D02*
X897Y1746D01*
X921Y1746D02*
X997Y1746D01*
X1021Y1746D02*
X1097Y1746D01*
X1121Y1746D02*
X1197Y1746D01*
X1421Y1746D02*
X1497Y1746D01*
X1521Y1746D02*
X1597Y1746D01*
X1621Y1746D02*
X1697Y1746D01*
X1721Y1746D02*
X1797Y1746D01*
X1821Y1746D02*
X1897Y1746D01*
X1921Y1746D02*
X1997Y1746D01*
X2021Y1746D02*
X2097Y1746D01*
X2121Y1746D02*
X2197Y1746D01*
X2221Y1746D02*
X2297Y1746D01*
X2321Y1746D02*
X2397Y1746D01*
X221Y1745D02*
X297Y1745D01*
X321Y1745D02*
X397Y1745D01*
X421Y1745D02*
X497Y1745D01*
X521Y1745D02*
X597Y1745D01*
X621Y1745D02*
X697Y1745D01*
X721Y1745D02*
X797Y1745D01*
X821Y1745D02*
X897Y1745D01*
X921Y1745D02*
X997Y1745D01*
X1021Y1745D02*
X1097Y1745D01*
X1121Y1745D02*
X1197Y1745D01*
X1421Y1745D02*
X1497Y1745D01*
X1521Y1745D02*
X1597Y1745D01*
X1621Y1745D02*
X1697Y1745D01*
X1721Y1745D02*
X1797Y1745D01*
X1821Y1745D02*
X1897Y1745D01*
X1921Y1745D02*
X1997Y1745D01*
X2021Y1745D02*
X2097Y1745D01*
X2121Y1745D02*
X2197Y1745D01*
X2221Y1745D02*
X2297Y1745D01*
X2321Y1745D02*
X2397Y1745D01*
X221Y1744D02*
X297Y1744D01*
X321Y1744D02*
X397Y1744D01*
X421Y1744D02*
X497Y1744D01*
X521Y1744D02*
X597Y1744D01*
X621Y1744D02*
X697Y1744D01*
X721Y1744D02*
X797Y1744D01*
X821Y1744D02*
X897Y1744D01*
X921Y1744D02*
X997Y1744D01*
X1021Y1744D02*
X1097Y1744D01*
X1121Y1744D02*
X1197Y1744D01*
X1421Y1744D02*
X1497Y1744D01*
X1521Y1744D02*
X1597Y1744D01*
X1621Y1744D02*
X1697Y1744D01*
X1721Y1744D02*
X1797Y1744D01*
X1821Y1744D02*
X1897Y1744D01*
X1921Y1744D02*
X1997Y1744D01*
X2021Y1744D02*
X2097Y1744D01*
X2121Y1744D02*
X2197Y1744D01*
X2221Y1744D02*
X2297Y1744D01*
X2321Y1744D02*
X2397Y1744D01*
X222Y1743D02*
X297Y1743D01*
X322Y1743D02*
X397Y1743D01*
X422Y1743D02*
X497Y1743D01*
X522Y1743D02*
X597Y1743D01*
X622Y1743D02*
X697Y1743D01*
X722Y1743D02*
X797Y1743D01*
X822Y1743D02*
X897Y1743D01*
X922Y1743D02*
X997Y1743D01*
X1022Y1743D02*
X1097Y1743D01*
X1122Y1743D02*
X1197Y1743D01*
X1422Y1743D02*
X1497Y1743D01*
X1522Y1743D02*
X1597Y1743D01*
X1622Y1743D02*
X1697Y1743D01*
X1721Y1743D02*
X1797Y1743D01*
X1821Y1743D02*
X1897Y1743D01*
X1921Y1743D02*
X1997Y1743D01*
X2021Y1743D02*
X2097Y1743D01*
X2121Y1743D02*
X2197Y1743D01*
X2221Y1743D02*
X2297Y1743D01*
X2321Y1743D02*
X2397Y1743D01*
X222Y1742D02*
X296Y1742D01*
X322Y1742D02*
X396Y1742D01*
X422Y1742D02*
X496Y1742D01*
X522Y1742D02*
X596Y1742D01*
X622Y1742D02*
X696Y1742D01*
X722Y1742D02*
X796Y1742D01*
X822Y1742D02*
X896Y1742D01*
X922Y1742D02*
X996Y1742D01*
X1022Y1742D02*
X1096Y1742D01*
X1122Y1742D02*
X1196Y1742D01*
X1422Y1742D02*
X1496Y1742D01*
X1522Y1742D02*
X1596Y1742D01*
X1622Y1742D02*
X1696Y1742D01*
X1722Y1742D02*
X1796Y1742D01*
X1822Y1742D02*
X1896Y1742D01*
X1922Y1742D02*
X1996Y1742D01*
X2022Y1742D02*
X2096Y1742D01*
X2122Y1742D02*
X2196Y1742D01*
X2222Y1742D02*
X2296Y1742D01*
X2322Y1742D02*
X2396Y1742D01*
X222Y1741D02*
X296Y1741D01*
X322Y1741D02*
X396Y1741D01*
X422Y1741D02*
X496Y1741D01*
X522Y1741D02*
X596Y1741D01*
X622Y1741D02*
X696Y1741D01*
X722Y1741D02*
X796Y1741D01*
X822Y1741D02*
X896Y1741D01*
X922Y1741D02*
X996Y1741D01*
X1022Y1741D02*
X1096Y1741D01*
X1122Y1741D02*
X1196Y1741D01*
X1422Y1741D02*
X1496Y1741D01*
X1522Y1741D02*
X1596Y1741D01*
X1622Y1741D02*
X1696Y1741D01*
X1722Y1741D02*
X1796Y1741D01*
X1822Y1741D02*
X1896Y1741D01*
X1922Y1741D02*
X1996Y1741D01*
X2022Y1741D02*
X2096Y1741D01*
X2122Y1741D02*
X2196Y1741D01*
X2222Y1741D02*
X2296Y1741D01*
X2322Y1741D02*
X2396Y1741D01*
X223Y1740D02*
X296Y1740D01*
X323Y1740D02*
X396Y1740D01*
X423Y1740D02*
X496Y1740D01*
X523Y1740D02*
X596Y1740D01*
X623Y1740D02*
X696Y1740D01*
X723Y1740D02*
X796Y1740D01*
X823Y1740D02*
X896Y1740D01*
X923Y1740D02*
X996Y1740D01*
X1023Y1740D02*
X1096Y1740D01*
X1123Y1740D02*
X1196Y1740D01*
X1423Y1740D02*
X1496Y1740D01*
X1523Y1740D02*
X1596Y1740D01*
X1623Y1740D02*
X1696Y1740D01*
X1723Y1740D02*
X1796Y1740D01*
X1823Y1740D02*
X1896Y1740D01*
X1923Y1740D02*
X1996Y1740D01*
X2023Y1740D02*
X2096Y1740D01*
X2123Y1740D02*
X2196Y1740D01*
X2223Y1740D02*
X2296Y1740D01*
X2323Y1740D02*
X2396Y1740D01*
X223Y1739D02*
X295Y1739D01*
X323Y1739D02*
X395Y1739D01*
X423Y1739D02*
X495Y1739D01*
X523Y1739D02*
X595Y1739D01*
X623Y1739D02*
X695Y1739D01*
X723Y1739D02*
X795Y1739D01*
X823Y1739D02*
X895Y1739D01*
X923Y1739D02*
X995Y1739D01*
X1023Y1739D02*
X1095Y1739D01*
X1123Y1739D02*
X1195Y1739D01*
X1423Y1739D02*
X1495Y1739D01*
X1523Y1739D02*
X1595Y1739D01*
X1623Y1739D02*
X1695Y1739D01*
X1723Y1739D02*
X1795Y1739D01*
X1823Y1739D02*
X1895Y1739D01*
X1923Y1739D02*
X1995Y1739D01*
X2023Y1739D02*
X2095Y1739D01*
X2123Y1739D02*
X2195Y1739D01*
X2223Y1739D02*
X2295Y1739D01*
X2323Y1739D02*
X2395Y1739D01*
X224Y1738D02*
X295Y1738D01*
X324Y1738D02*
X395Y1738D01*
X424Y1738D02*
X495Y1738D01*
X524Y1738D02*
X595Y1738D01*
X624Y1738D02*
X695Y1738D01*
X724Y1738D02*
X795Y1738D01*
X824Y1738D02*
X895Y1738D01*
X924Y1738D02*
X995Y1738D01*
X1024Y1738D02*
X1095Y1738D01*
X1124Y1738D02*
X1195Y1738D01*
X1423Y1738D02*
X1495Y1738D01*
X1523Y1738D02*
X1595Y1738D01*
X1623Y1738D02*
X1695Y1738D01*
X1723Y1738D02*
X1795Y1738D01*
X1823Y1738D02*
X1895Y1738D01*
X1923Y1738D02*
X1995Y1738D01*
X2023Y1738D02*
X2095Y1738D01*
X2123Y1738D02*
X2195Y1738D01*
X2223Y1738D02*
X2295Y1738D01*
X2323Y1738D02*
X2395Y1738D01*
X224Y1737D02*
X294Y1737D01*
X324Y1737D02*
X394Y1737D01*
X424Y1737D02*
X494Y1737D01*
X524Y1737D02*
X594Y1737D01*
X624Y1737D02*
X694Y1737D01*
X724Y1737D02*
X794Y1737D01*
X824Y1737D02*
X894Y1737D01*
X924Y1737D02*
X994Y1737D01*
X1024Y1737D02*
X1094Y1737D01*
X1124Y1737D02*
X1194Y1737D01*
X1424Y1737D02*
X1494Y1737D01*
X1524Y1737D02*
X1594Y1737D01*
X1624Y1737D02*
X1694Y1737D01*
X1724Y1737D02*
X1794Y1737D01*
X1824Y1737D02*
X1894Y1737D01*
X1924Y1737D02*
X1994Y1737D01*
X2024Y1737D02*
X2094Y1737D01*
X2124Y1737D02*
X2194Y1737D01*
X2224Y1737D02*
X2294Y1737D01*
X2324Y1737D02*
X2394Y1737D01*
X225Y1736D02*
X294Y1736D01*
X325Y1736D02*
X394Y1736D01*
X425Y1736D02*
X494Y1736D01*
X525Y1736D02*
X594Y1736D01*
X625Y1736D02*
X694Y1736D01*
X725Y1736D02*
X794Y1736D01*
X825Y1736D02*
X894Y1736D01*
X925Y1736D02*
X994Y1736D01*
X1025Y1736D02*
X1094Y1736D01*
X1125Y1736D02*
X1194Y1736D01*
X1424Y1736D02*
X1494Y1736D01*
X1524Y1736D02*
X1594Y1736D01*
X1624Y1736D02*
X1694Y1736D01*
X1724Y1736D02*
X1794Y1736D01*
X1824Y1736D02*
X1894Y1736D01*
X1924Y1736D02*
X1994Y1736D01*
X2024Y1736D02*
X2094Y1736D01*
X2124Y1736D02*
X2194Y1736D01*
X2224Y1736D02*
X2294Y1736D01*
X2324Y1736D02*
X2394Y1736D01*
X225Y1735D02*
X293Y1735D01*
X325Y1735D02*
X393Y1735D01*
X425Y1735D02*
X493Y1735D01*
X525Y1735D02*
X593Y1735D01*
X625Y1735D02*
X693Y1735D01*
X725Y1735D02*
X793Y1735D01*
X825Y1735D02*
X893Y1735D01*
X925Y1735D02*
X993Y1735D01*
X1025Y1735D02*
X1093Y1735D01*
X1125Y1735D02*
X1193Y1735D01*
X1425Y1735D02*
X1493Y1735D01*
X1525Y1735D02*
X1593Y1735D01*
X1625Y1735D02*
X1693Y1735D01*
X1725Y1735D02*
X1793Y1735D01*
X1825Y1735D02*
X1893Y1735D01*
X1925Y1735D02*
X1993Y1735D01*
X2025Y1735D02*
X2093Y1735D01*
X2125Y1735D02*
X2193Y1735D01*
X2225Y1735D02*
X2293Y1735D01*
X2325Y1735D02*
X2393Y1735D01*
X226Y1734D02*
X293Y1734D01*
X326Y1734D02*
X393Y1734D01*
X426Y1734D02*
X493Y1734D01*
X526Y1734D02*
X593Y1734D01*
X626Y1734D02*
X693Y1734D01*
X726Y1734D02*
X793Y1734D01*
X826Y1734D02*
X892Y1734D01*
X926Y1734D02*
X992Y1734D01*
X1026Y1734D02*
X1092Y1734D01*
X1126Y1734D02*
X1192Y1734D01*
X1426Y1734D02*
X1492Y1734D01*
X1526Y1734D02*
X1592Y1734D01*
X1626Y1734D02*
X1692Y1734D01*
X1726Y1734D02*
X1792Y1734D01*
X1826Y1734D02*
X1892Y1734D01*
X1926Y1734D02*
X1992Y1734D01*
X2026Y1734D02*
X2092Y1734D01*
X2126Y1734D02*
X2192Y1734D01*
X2226Y1734D02*
X2292Y1734D01*
X2326Y1734D02*
X2392Y1734D01*
X226Y1733D02*
X292Y1733D01*
X326Y1733D02*
X392Y1733D01*
X426Y1733D02*
X492Y1733D01*
X526Y1733D02*
X592Y1733D01*
X626Y1733D02*
X692Y1733D01*
X726Y1733D02*
X792Y1733D01*
X826Y1733D02*
X892Y1733D01*
X926Y1733D02*
X992Y1733D01*
X1026Y1733D02*
X1092Y1733D01*
X1126Y1733D02*
X1192Y1733D01*
X1426Y1733D02*
X1492Y1733D01*
X1526Y1733D02*
X1592Y1733D01*
X1626Y1733D02*
X1692Y1733D01*
X1726Y1733D02*
X1792Y1733D01*
X1826Y1733D02*
X1892Y1733D01*
X1926Y1733D02*
X1992Y1733D01*
X2026Y1733D02*
X2092Y1733D01*
X2126Y1733D02*
X2192Y1733D01*
X2226Y1733D02*
X2292Y1733D01*
X2326Y1733D02*
X2392Y1733D01*
X227Y1732D02*
X291Y1732D01*
X327Y1732D02*
X391Y1732D01*
X427Y1732D02*
X491Y1732D01*
X527Y1732D02*
X591Y1732D01*
X627Y1732D02*
X691Y1732D01*
X727Y1732D02*
X791Y1732D01*
X827Y1732D02*
X891Y1732D01*
X927Y1732D02*
X991Y1732D01*
X1027Y1732D02*
X1091Y1732D01*
X1127Y1732D02*
X1191Y1732D01*
X1427Y1732D02*
X1491Y1732D01*
X1527Y1732D02*
X1591Y1732D01*
X1627Y1732D02*
X1691Y1732D01*
X1727Y1732D02*
X1791Y1732D01*
X1827Y1732D02*
X1891Y1732D01*
X1927Y1732D02*
X1991Y1732D01*
X2027Y1732D02*
X2091Y1732D01*
X2127Y1732D02*
X2191Y1732D01*
X2227Y1732D02*
X2291Y1732D01*
X2327Y1732D02*
X2391Y1732D01*
X228Y1731D02*
X290Y1731D01*
X328Y1731D02*
X390Y1731D01*
X428Y1731D02*
X490Y1731D01*
X528Y1731D02*
X590Y1731D01*
X628Y1731D02*
X690Y1731D01*
X728Y1731D02*
X790Y1731D01*
X828Y1731D02*
X890Y1731D01*
X928Y1731D02*
X990Y1731D01*
X1028Y1731D02*
X1090Y1731D01*
X1128Y1731D02*
X1190Y1731D01*
X1428Y1731D02*
X1490Y1731D01*
X1528Y1731D02*
X1590Y1731D01*
X1628Y1731D02*
X1690Y1731D01*
X1728Y1731D02*
X1790Y1731D01*
X1828Y1731D02*
X1890Y1731D01*
X1928Y1731D02*
X1990Y1731D01*
X2028Y1731D02*
X2090Y1731D01*
X2128Y1731D02*
X2190Y1731D01*
X2228Y1731D02*
X2290Y1731D01*
X2328Y1731D02*
X2390Y1731D01*
X229Y1730D02*
X290Y1730D01*
X329Y1730D02*
X390Y1730D01*
X429Y1730D02*
X490Y1730D01*
X529Y1730D02*
X590Y1730D01*
X629Y1730D02*
X690Y1730D01*
X729Y1730D02*
X790Y1730D01*
X829Y1730D02*
X890Y1730D01*
X929Y1730D02*
X990Y1730D01*
X1029Y1730D02*
X1090Y1730D01*
X1129Y1730D02*
X1190Y1730D01*
X1429Y1730D02*
X1490Y1730D01*
X1529Y1730D02*
X1590Y1730D01*
X1629Y1730D02*
X1690Y1730D01*
X1729Y1730D02*
X1790Y1730D01*
X1829Y1730D02*
X1890Y1730D01*
X1929Y1730D02*
X1990Y1730D01*
X2028Y1730D02*
X2090Y1730D01*
X2128Y1730D02*
X2190Y1730D01*
X2228Y1730D02*
X2290Y1730D01*
X2328Y1730D02*
X2390Y1730D01*
X229Y1729D02*
X289Y1729D01*
X329Y1729D02*
X389Y1729D01*
X429Y1729D02*
X489Y1729D01*
X529Y1729D02*
X589Y1729D01*
X629Y1729D02*
X689Y1729D01*
X729Y1729D02*
X789Y1729D01*
X829Y1729D02*
X889Y1729D01*
X929Y1729D02*
X989Y1729D01*
X1029Y1729D02*
X1089Y1729D01*
X1129Y1729D02*
X1189Y1729D01*
X1429Y1729D02*
X1489Y1729D01*
X1529Y1729D02*
X1589Y1729D01*
X1629Y1729D02*
X1689Y1729D01*
X1729Y1729D02*
X1789Y1729D01*
X1829Y1729D02*
X1889Y1729D01*
X1929Y1729D02*
X1989Y1729D01*
X2029Y1729D02*
X2089Y1729D01*
X2129Y1729D02*
X2189Y1729D01*
X2229Y1729D02*
X2289Y1729D01*
X2329Y1729D02*
X2389Y1729D01*
X230Y1728D02*
X288Y1728D01*
X330Y1728D02*
X388Y1728D01*
X430Y1728D02*
X488Y1728D01*
X530Y1728D02*
X588Y1728D01*
X630Y1728D02*
X688Y1728D01*
X730Y1728D02*
X788Y1728D01*
X830Y1728D02*
X888Y1728D01*
X930Y1728D02*
X988Y1728D01*
X1030Y1728D02*
X1088Y1728D01*
X1130Y1728D02*
X1188Y1728D01*
X1430Y1728D02*
X1488Y1728D01*
X1530Y1728D02*
X1588Y1728D01*
X1630Y1728D02*
X1688Y1728D01*
X1730Y1728D02*
X1788Y1728D01*
X1830Y1728D02*
X1888Y1728D01*
X1930Y1728D02*
X1988Y1728D01*
X2030Y1728D02*
X2088Y1728D01*
X2130Y1728D02*
X2188Y1728D01*
X2230Y1728D02*
X2288Y1728D01*
X2330Y1728D02*
X2388Y1728D01*
X231Y1727D02*
X287Y1727D01*
X331Y1727D02*
X387Y1727D01*
X431Y1727D02*
X487Y1727D01*
X531Y1727D02*
X587Y1727D01*
X631Y1727D02*
X687Y1727D01*
X731Y1727D02*
X787Y1727D01*
X831Y1727D02*
X887Y1727D01*
X931Y1727D02*
X987Y1727D01*
X1031Y1727D02*
X1087Y1727D01*
X1131Y1727D02*
X1187Y1727D01*
X1431Y1727D02*
X1487Y1727D01*
X1531Y1727D02*
X1587Y1727D01*
X1631Y1727D02*
X1687Y1727D01*
X1731Y1727D02*
X1787Y1727D01*
X1831Y1727D02*
X1887Y1727D01*
X1931Y1727D02*
X1987Y1727D01*
X2031Y1727D02*
X2087Y1727D01*
X2131Y1727D02*
X2187Y1727D01*
X2231Y1727D02*
X2287Y1727D01*
X2331Y1727D02*
X2387Y1727D01*
X232Y1726D02*
X286Y1726D01*
X332Y1726D02*
X386Y1726D01*
X432Y1726D02*
X486Y1726D01*
X532Y1726D02*
X586Y1726D01*
X632Y1726D02*
X686Y1726D01*
X732Y1726D02*
X786Y1726D01*
X832Y1726D02*
X886Y1726D01*
X932Y1726D02*
X986Y1726D01*
X1032Y1726D02*
X1086Y1726D01*
X1132Y1726D02*
X1186Y1726D01*
X1432Y1726D02*
X1486Y1726D01*
X1532Y1726D02*
X1586Y1726D01*
X1632Y1726D02*
X1686Y1726D01*
X1732Y1726D02*
X1786Y1726D01*
X1832Y1726D02*
X1886Y1726D01*
X1932Y1726D02*
X1986Y1726D01*
X2032Y1726D02*
X2086Y1726D01*
X2132Y1726D02*
X2186Y1726D01*
X2232Y1726D02*
X2286Y1726D01*
X2332Y1726D02*
X2386Y1726D01*
X233Y1725D02*
X285Y1725D01*
X333Y1725D02*
X385Y1725D01*
X433Y1725D02*
X485Y1725D01*
X533Y1725D02*
X585Y1725D01*
X633Y1725D02*
X685Y1725D01*
X733Y1725D02*
X785Y1725D01*
X833Y1725D02*
X885Y1725D01*
X933Y1725D02*
X985Y1725D01*
X1033Y1725D02*
X1085Y1725D01*
X1133Y1725D02*
X1185Y1725D01*
X1433Y1725D02*
X1485Y1725D01*
X1533Y1725D02*
X1585Y1725D01*
X1633Y1725D02*
X1685Y1725D01*
X1733Y1725D02*
X1785Y1725D01*
X1833Y1725D02*
X1885Y1725D01*
X1933Y1725D02*
X1985Y1725D01*
X2033Y1725D02*
X2085Y1725D01*
X2133Y1725D02*
X2185Y1725D01*
X2233Y1725D02*
X2285Y1725D01*
X2333Y1725D02*
X2385Y1725D01*
X235Y1724D02*
X284Y1724D01*
X335Y1724D02*
X384Y1724D01*
X435Y1724D02*
X484Y1724D01*
X535Y1724D02*
X584Y1724D01*
X635Y1724D02*
X684Y1724D01*
X735Y1724D02*
X784Y1724D01*
X835Y1724D02*
X884Y1724D01*
X935Y1724D02*
X984Y1724D01*
X1035Y1724D02*
X1084Y1724D01*
X1135Y1724D02*
X1184Y1724D01*
X1435Y1724D02*
X1484Y1724D01*
X1535Y1724D02*
X1584Y1724D01*
X1635Y1724D02*
X1684Y1724D01*
X1735Y1724D02*
X1784Y1724D01*
X1835Y1724D02*
X1884Y1724D01*
X1935Y1724D02*
X1984Y1724D01*
X2035Y1724D02*
X2084Y1724D01*
X2134Y1724D02*
X2184Y1724D01*
X2234Y1724D02*
X2284Y1724D01*
X2334Y1724D02*
X2384Y1724D01*
X236Y1723D02*
X282Y1723D01*
X336Y1723D02*
X382Y1723D01*
X436Y1723D02*
X482Y1723D01*
X536Y1723D02*
X582Y1723D01*
X636Y1723D02*
X682Y1723D01*
X736Y1723D02*
X782Y1723D01*
X836Y1723D02*
X882Y1723D01*
X936Y1723D02*
X982Y1723D01*
X1036Y1723D02*
X1082Y1723D01*
X1136Y1723D02*
X1182Y1723D01*
X1436Y1723D02*
X1482Y1723D01*
X1536Y1723D02*
X1582Y1723D01*
X1636Y1723D02*
X1682Y1723D01*
X1736Y1723D02*
X1782Y1723D01*
X1836Y1723D02*
X1882Y1723D01*
X1936Y1723D02*
X1982Y1723D01*
X2036Y1723D02*
X2082Y1723D01*
X2136Y1723D02*
X2182Y1723D01*
X2236Y1723D02*
X2282Y1723D01*
X2336Y1723D02*
X2382Y1723D01*
X237Y1722D02*
X281Y1722D01*
X337Y1722D02*
X381Y1722D01*
X437Y1722D02*
X481Y1722D01*
X537Y1722D02*
X581Y1722D01*
X637Y1722D02*
X681Y1722D01*
X737Y1722D02*
X781Y1722D01*
X837Y1722D02*
X881Y1722D01*
X937Y1722D02*
X981Y1722D01*
X1037Y1722D02*
X1081Y1722D01*
X1137Y1722D02*
X1181Y1722D01*
X1437Y1722D02*
X1481Y1722D01*
X1537Y1722D02*
X1581Y1722D01*
X1637Y1722D02*
X1681Y1722D01*
X1737Y1722D02*
X1781Y1722D01*
X1837Y1722D02*
X1881Y1722D01*
X1937Y1722D02*
X1981Y1722D01*
X2037Y1722D02*
X2081Y1722D01*
X2137Y1722D02*
X2181Y1722D01*
X2237Y1722D02*
X2281Y1722D01*
X2337Y1722D02*
X2381Y1722D01*
X239Y1721D02*
X279Y1721D01*
X339Y1721D02*
X379Y1721D01*
X439Y1721D02*
X479Y1721D01*
X539Y1721D02*
X579Y1721D01*
X639Y1721D02*
X679Y1721D01*
X739Y1721D02*
X779Y1721D01*
X839Y1721D02*
X879Y1721D01*
X939Y1721D02*
X979Y1721D01*
X1039Y1721D02*
X1079Y1721D01*
X1139Y1721D02*
X1179Y1721D01*
X1439Y1721D02*
X1479Y1721D01*
X1539Y1721D02*
X1579Y1721D01*
X1639Y1721D02*
X1679Y1721D01*
X1739Y1721D02*
X1779Y1721D01*
X1839Y1721D02*
X1879Y1721D01*
X1939Y1721D02*
X1979Y1721D01*
X2039Y1721D02*
X2079Y1721D01*
X2139Y1721D02*
X2179Y1721D01*
X2239Y1721D02*
X2279Y1721D01*
X2339Y1721D02*
X2379Y1721D01*
X241Y1720D02*
X278Y1720D01*
X341Y1720D02*
X378Y1720D01*
X441Y1720D02*
X478Y1720D01*
X541Y1720D02*
X578Y1720D01*
X641Y1720D02*
X678Y1720D01*
X741Y1720D02*
X778Y1720D01*
X841Y1720D02*
X878Y1720D01*
X941Y1720D02*
X978Y1720D01*
X1041Y1720D02*
X1078Y1720D01*
X1141Y1720D02*
X1178Y1720D01*
X1440Y1720D02*
X1478Y1720D01*
X1540Y1720D02*
X1578Y1720D01*
X1640Y1720D02*
X1678Y1720D01*
X1740Y1720D02*
X1778Y1720D01*
X1840Y1720D02*
X1878Y1720D01*
X1940Y1720D02*
X1978Y1720D01*
X2040Y1720D02*
X2078Y1720D01*
X2140Y1720D02*
X2178Y1720D01*
X2240Y1720D02*
X2278Y1720D01*
X2340Y1720D02*
X2378Y1720D01*
X243Y1719D02*
X276Y1719D01*
X343Y1719D02*
X376Y1719D01*
X443Y1719D02*
X476Y1719D01*
X543Y1719D02*
X576Y1719D01*
X642Y1719D02*
X676Y1719D01*
X742Y1719D02*
X776Y1719D01*
X842Y1719D02*
X876Y1719D01*
X942Y1719D02*
X976Y1719D01*
X1042Y1719D02*
X1076Y1719D01*
X1142Y1719D02*
X1176Y1719D01*
X1442Y1719D02*
X1476Y1719D01*
X1542Y1719D02*
X1576Y1719D01*
X1642Y1719D02*
X1676Y1719D01*
X1742Y1719D02*
X1776Y1719D01*
X1842Y1719D02*
X1876Y1719D01*
X1942Y1719D02*
X1976Y1719D01*
X2042Y1719D02*
X2076Y1719D01*
X2142Y1719D02*
X2176Y1719D01*
X2242Y1719D02*
X2276Y1719D01*
X2342Y1719D02*
X2376Y1719D01*
X245Y1718D02*
X274Y1718D01*
X345Y1718D02*
X374Y1718D01*
X445Y1718D02*
X474Y1718D01*
X545Y1718D02*
X574Y1718D01*
X645Y1718D02*
X674Y1718D01*
X745Y1718D02*
X774Y1718D01*
X845Y1718D02*
X874Y1718D01*
X945Y1718D02*
X974Y1718D01*
X1045Y1718D02*
X1074Y1718D01*
X1145Y1718D02*
X1174Y1718D01*
X1445Y1718D02*
X1474Y1718D01*
X1545Y1718D02*
X1574Y1718D01*
X1645Y1718D02*
X1674Y1718D01*
X1745Y1718D02*
X1774Y1718D01*
X1845Y1718D02*
X1874Y1718D01*
X1945Y1718D02*
X1974Y1718D01*
X2045Y1718D02*
X2073Y1718D01*
X2145Y1718D02*
X2173Y1718D01*
X2245Y1718D02*
X2273Y1718D01*
X2345Y1718D02*
X2373Y1718D01*
X248Y1717D02*
X271Y1717D01*
X348Y1717D02*
X371Y1717D01*
X448Y1717D02*
X471Y1717D01*
X548Y1717D02*
X571Y1717D01*
X648Y1717D02*
X671Y1717D01*
X748Y1717D02*
X771Y1717D01*
X848Y1717D02*
X871Y1717D01*
X948Y1717D02*
X971Y1717D01*
X1048Y1717D02*
X1071Y1717D01*
X1148Y1717D02*
X1171Y1717D01*
X1447Y1717D02*
X1471Y1717D01*
X1547Y1717D02*
X1571Y1717D01*
X1647Y1717D02*
X1671Y1717D01*
X1747Y1717D02*
X1771Y1717D01*
X1847Y1717D02*
X1871Y1717D01*
X1947Y1717D02*
X1971Y1717D01*
X2047Y1717D02*
X2071Y1717D01*
X2147Y1717D02*
X2171Y1717D01*
X2247Y1717D02*
X2271Y1717D01*
X2347Y1717D02*
X2371Y1717D01*
X251Y1716D02*
X267Y1716D01*
X351Y1716D02*
X367Y1716D01*
X451Y1716D02*
X467Y1716D01*
X551Y1716D02*
X567Y1716D01*
X651Y1716D02*
X667Y1716D01*
X751Y1716D02*
X767Y1716D01*
X851Y1716D02*
X867Y1716D01*
X951Y1716D02*
X967Y1716D01*
X1051Y1716D02*
X1067Y1716D01*
X1151Y1716D02*
X1167Y1716D01*
X1451Y1716D02*
X1467Y1716D01*
X1551Y1716D02*
X1567Y1716D01*
X1651Y1716D02*
X1667Y1716D01*
X1751Y1716D02*
X1767Y1716D01*
X1851Y1716D02*
X1867Y1716D01*
X1951Y1716D02*
X1967Y1716D01*
X2051Y1716D02*
X2067Y1716D01*
X2151Y1716D02*
X2167Y1716D01*
X2251Y1716D02*
X2267Y1716D01*
X2351Y1716D02*
X2367Y1716D01*
X257Y1495D02*
X261Y1495D01*
X357Y1495D02*
X361Y1495D01*
X457Y1495D02*
X461Y1495D01*
X557Y1495D02*
X561Y1495D01*
X657Y1495D02*
X661Y1495D01*
X757Y1495D02*
X761Y1495D01*
X857Y1495D02*
X861Y1495D01*
X957Y1495D02*
X961Y1495D01*
X1057Y1495D02*
X1061Y1495D01*
X1157Y1495D02*
X1161Y1495D01*
X1457Y1495D02*
X1461Y1495D01*
X1557Y1495D02*
X1561Y1495D01*
X1657Y1495D02*
X1661Y1495D01*
X1757Y1495D02*
X1761Y1495D01*
X1857Y1495D02*
X1861Y1495D01*
X1957Y1495D02*
X1961Y1495D01*
X2057Y1495D02*
X2061Y1495D01*
X2157Y1495D02*
X2161Y1495D01*
X2257Y1495D02*
X2261Y1495D01*
X2357Y1495D02*
X2361Y1495D01*
X251Y1494D02*
X268Y1494D01*
X351Y1494D02*
X368Y1494D01*
X451Y1494D02*
X468Y1494D01*
X551Y1494D02*
X568Y1494D01*
X651Y1494D02*
X668Y1494D01*
X751Y1494D02*
X768Y1494D01*
X851Y1494D02*
X868Y1494D01*
X951Y1494D02*
X968Y1494D01*
X1051Y1494D02*
X1068Y1494D01*
X1151Y1494D02*
X1168Y1494D01*
X1451Y1494D02*
X1468Y1494D01*
X1551Y1494D02*
X1568Y1494D01*
X1651Y1494D02*
X1668Y1494D01*
X1751Y1494D02*
X1768Y1494D01*
X1851Y1494D02*
X1868Y1494D01*
X1951Y1494D02*
X1968Y1494D01*
X2051Y1494D02*
X2068Y1494D01*
X2151Y1494D02*
X2168Y1494D01*
X2251Y1494D02*
X2268Y1494D01*
X2350Y1494D02*
X2368Y1494D01*
X247Y1493D02*
X271Y1493D01*
X347Y1493D02*
X371Y1493D01*
X447Y1493D02*
X471Y1493D01*
X547Y1493D02*
X571Y1493D01*
X647Y1493D02*
X671Y1493D01*
X747Y1493D02*
X771Y1493D01*
X847Y1493D02*
X871Y1493D01*
X947Y1493D02*
X971Y1493D01*
X1047Y1493D02*
X1071Y1493D01*
X1147Y1493D02*
X1171Y1493D01*
X1447Y1493D02*
X1471Y1493D01*
X1547Y1493D02*
X1571Y1493D01*
X1647Y1493D02*
X1671Y1493D01*
X1747Y1493D02*
X1771Y1493D01*
X1847Y1493D02*
X1871Y1493D01*
X1947Y1493D02*
X1971Y1493D01*
X2047Y1493D02*
X2071Y1493D01*
X2147Y1493D02*
X2171Y1493D01*
X2247Y1493D02*
X2271Y1493D01*
X2347Y1493D02*
X2371Y1493D01*
X244Y1492D02*
X274Y1492D01*
X344Y1492D02*
X374Y1492D01*
X444Y1492D02*
X474Y1492D01*
X544Y1492D02*
X574Y1492D01*
X644Y1492D02*
X674Y1492D01*
X744Y1492D02*
X774Y1492D01*
X844Y1492D02*
X874Y1492D01*
X944Y1492D02*
X974Y1492D01*
X1044Y1492D02*
X1074Y1492D01*
X1144Y1492D02*
X1174Y1492D01*
X1444Y1492D02*
X1474Y1492D01*
X1544Y1492D02*
X1574Y1492D01*
X1644Y1492D02*
X1674Y1492D01*
X1744Y1492D02*
X1774Y1492D01*
X1844Y1492D02*
X1874Y1492D01*
X1944Y1492D02*
X1974Y1492D01*
X2044Y1492D02*
X2074Y1492D01*
X2144Y1492D02*
X2174Y1492D01*
X2244Y1492D02*
X2274Y1492D01*
X2344Y1492D02*
X2374Y1492D01*
X242Y1491D02*
X276Y1491D01*
X342Y1491D02*
X376Y1491D01*
X442Y1491D02*
X476Y1491D01*
X542Y1491D02*
X576Y1491D01*
X642Y1491D02*
X676Y1491D01*
X742Y1491D02*
X776Y1491D01*
X842Y1491D02*
X876Y1491D01*
X942Y1491D02*
X976Y1491D01*
X1042Y1491D02*
X1076Y1491D01*
X1142Y1491D02*
X1176Y1491D01*
X1442Y1491D02*
X1476Y1491D01*
X1542Y1491D02*
X1576Y1491D01*
X1642Y1491D02*
X1676Y1491D01*
X1742Y1491D02*
X1776Y1491D01*
X1842Y1491D02*
X1876Y1491D01*
X1942Y1491D02*
X1976Y1491D01*
X2042Y1491D02*
X2076Y1491D01*
X2142Y1491D02*
X2176Y1491D01*
X2242Y1491D02*
X2276Y1491D01*
X2342Y1491D02*
X2376Y1491D01*
X240Y1490D02*
X278Y1490D01*
X340Y1490D02*
X378Y1490D01*
X440Y1490D02*
X478Y1490D01*
X540Y1490D02*
X578Y1490D01*
X640Y1490D02*
X678Y1490D01*
X740Y1490D02*
X778Y1490D01*
X840Y1490D02*
X878Y1490D01*
X940Y1490D02*
X978Y1490D01*
X1040Y1490D02*
X1078Y1490D01*
X1140Y1490D02*
X1178Y1490D01*
X1440Y1490D02*
X1478Y1490D01*
X1540Y1490D02*
X1578Y1490D01*
X1640Y1490D02*
X1678Y1490D01*
X1740Y1490D02*
X1778Y1490D01*
X1840Y1490D02*
X1878Y1490D01*
X1940Y1490D02*
X1978Y1490D01*
X2040Y1490D02*
X2078Y1490D01*
X2140Y1490D02*
X2178Y1490D01*
X2240Y1490D02*
X2278Y1490D01*
X2340Y1490D02*
X2378Y1490D01*
X239Y1489D02*
X280Y1489D01*
X339Y1489D02*
X380Y1489D01*
X439Y1489D02*
X480Y1489D01*
X539Y1489D02*
X580Y1489D01*
X639Y1489D02*
X680Y1489D01*
X739Y1489D02*
X780Y1489D01*
X839Y1489D02*
X880Y1489D01*
X939Y1489D02*
X980Y1489D01*
X1039Y1489D02*
X1080Y1489D01*
X1139Y1489D02*
X1180Y1489D01*
X1438Y1489D02*
X1480Y1489D01*
X1538Y1489D02*
X1580Y1489D01*
X1638Y1489D02*
X1680Y1489D01*
X1738Y1489D02*
X1780Y1489D01*
X1838Y1489D02*
X1880Y1489D01*
X1938Y1489D02*
X1980Y1489D01*
X2038Y1489D02*
X2080Y1489D01*
X2138Y1489D02*
X2180Y1489D01*
X2238Y1489D02*
X2280Y1489D01*
X2338Y1489D02*
X2380Y1489D01*
X237Y1488D02*
X281Y1488D01*
X337Y1488D02*
X381Y1488D01*
X437Y1488D02*
X481Y1488D01*
X537Y1488D02*
X581Y1488D01*
X637Y1488D02*
X681Y1488D01*
X737Y1488D02*
X781Y1488D01*
X837Y1488D02*
X881Y1488D01*
X937Y1488D02*
X981Y1488D01*
X1037Y1488D02*
X1081Y1488D01*
X1137Y1488D02*
X1181Y1488D01*
X1437Y1488D02*
X1481Y1488D01*
X1537Y1488D02*
X1581Y1488D01*
X1637Y1488D02*
X1681Y1488D01*
X1737Y1488D02*
X1781Y1488D01*
X1837Y1488D02*
X1881Y1488D01*
X1937Y1488D02*
X1981Y1488D01*
X2037Y1488D02*
X2081Y1488D01*
X2137Y1488D02*
X2181Y1488D01*
X2237Y1488D02*
X2281Y1488D01*
X2337Y1488D02*
X2381Y1488D01*
X236Y1487D02*
X283Y1487D01*
X336Y1487D02*
X383Y1487D01*
X436Y1487D02*
X483Y1487D01*
X536Y1487D02*
X583Y1487D01*
X636Y1487D02*
X683Y1487D01*
X736Y1487D02*
X783Y1487D01*
X836Y1487D02*
X883Y1487D01*
X936Y1487D02*
X983Y1487D01*
X1036Y1487D02*
X1083Y1487D01*
X1136Y1487D02*
X1183Y1487D01*
X1436Y1487D02*
X1483Y1487D01*
X1536Y1487D02*
X1583Y1487D01*
X1636Y1487D02*
X1683Y1487D01*
X1736Y1487D02*
X1783Y1487D01*
X1836Y1487D02*
X1883Y1487D01*
X1936Y1487D02*
X1983Y1487D01*
X2036Y1487D02*
X2083Y1487D01*
X2136Y1487D02*
X2183Y1487D01*
X2236Y1487D02*
X2283Y1487D01*
X2336Y1487D02*
X2383Y1487D01*
X234Y1486D02*
X284Y1486D01*
X334Y1486D02*
X384Y1486D01*
X434Y1486D02*
X484Y1486D01*
X534Y1486D02*
X584Y1486D01*
X634Y1486D02*
X684Y1486D01*
X734Y1486D02*
X784Y1486D01*
X834Y1486D02*
X884Y1486D01*
X934Y1486D02*
X984Y1486D01*
X1034Y1486D02*
X1084Y1486D01*
X1134Y1486D02*
X1184Y1486D01*
X1434Y1486D02*
X1484Y1486D01*
X1534Y1486D02*
X1584Y1486D01*
X1634Y1486D02*
X1684Y1486D01*
X1734Y1486D02*
X1784Y1486D01*
X1834Y1486D02*
X1884Y1486D01*
X1934Y1486D02*
X1984Y1486D01*
X2034Y1486D02*
X2084Y1486D01*
X2134Y1486D02*
X2184Y1486D01*
X2234Y1486D02*
X2284Y1486D01*
X2334Y1486D02*
X2384Y1486D01*
X233Y1485D02*
X285Y1485D01*
X333Y1485D02*
X385Y1485D01*
X433Y1485D02*
X485Y1485D01*
X533Y1485D02*
X585Y1485D01*
X633Y1485D02*
X685Y1485D01*
X733Y1485D02*
X785Y1485D01*
X833Y1485D02*
X885Y1485D01*
X933Y1485D02*
X985Y1485D01*
X1033Y1485D02*
X1085Y1485D01*
X1133Y1485D02*
X1185Y1485D01*
X1433Y1485D02*
X1485Y1485D01*
X1533Y1485D02*
X1585Y1485D01*
X1633Y1485D02*
X1685Y1485D01*
X1733Y1485D02*
X1785Y1485D01*
X1833Y1485D02*
X1885Y1485D01*
X1933Y1485D02*
X1985Y1485D01*
X2033Y1485D02*
X2085Y1485D01*
X2133Y1485D02*
X2185Y1485D01*
X2233Y1485D02*
X2285Y1485D01*
X2333Y1485D02*
X2385Y1485D01*
X232Y1484D02*
X286Y1484D01*
X332Y1484D02*
X386Y1484D01*
X432Y1484D02*
X486Y1484D01*
X532Y1484D02*
X586Y1484D01*
X632Y1484D02*
X686Y1484D01*
X732Y1484D02*
X786Y1484D01*
X832Y1484D02*
X886Y1484D01*
X932Y1484D02*
X986Y1484D01*
X1032Y1484D02*
X1086Y1484D01*
X1132Y1484D02*
X1186Y1484D01*
X1432Y1484D02*
X1486Y1484D01*
X1532Y1484D02*
X1586Y1484D01*
X1632Y1484D02*
X1686Y1484D01*
X1732Y1484D02*
X1786Y1484D01*
X1832Y1484D02*
X1886Y1484D01*
X1932Y1484D02*
X1986Y1484D01*
X2032Y1484D02*
X2086Y1484D01*
X2132Y1484D02*
X2186Y1484D01*
X2232Y1484D02*
X2286Y1484D01*
X2332Y1484D02*
X2386Y1484D01*
X231Y1483D02*
X287Y1483D01*
X331Y1483D02*
X387Y1483D01*
X431Y1483D02*
X487Y1483D01*
X531Y1483D02*
X587Y1483D01*
X631Y1483D02*
X687Y1483D01*
X731Y1483D02*
X787Y1483D01*
X831Y1483D02*
X887Y1483D01*
X931Y1483D02*
X987Y1483D01*
X1031Y1483D02*
X1087Y1483D01*
X1131Y1483D02*
X1187Y1483D01*
X1431Y1483D02*
X1487Y1483D01*
X1531Y1483D02*
X1587Y1483D01*
X1631Y1483D02*
X1687Y1483D01*
X1731Y1483D02*
X1787Y1483D01*
X1831Y1483D02*
X1887Y1483D01*
X1931Y1483D02*
X1987Y1483D01*
X2031Y1483D02*
X2087Y1483D01*
X2131Y1483D02*
X2187Y1483D01*
X2231Y1483D02*
X2287Y1483D01*
X2331Y1483D02*
X2387Y1483D01*
X230Y1482D02*
X288Y1482D01*
X330Y1482D02*
X388Y1482D01*
X430Y1482D02*
X488Y1482D01*
X530Y1482D02*
X588Y1482D01*
X630Y1482D02*
X688Y1482D01*
X730Y1482D02*
X788Y1482D01*
X830Y1482D02*
X888Y1482D01*
X930Y1482D02*
X988Y1482D01*
X1030Y1482D02*
X1088Y1482D01*
X1130Y1482D02*
X1188Y1482D01*
X1430Y1482D02*
X1488Y1482D01*
X1530Y1482D02*
X1588Y1482D01*
X1630Y1482D02*
X1688Y1482D01*
X1730Y1482D02*
X1788Y1482D01*
X1830Y1482D02*
X1888Y1482D01*
X1930Y1482D02*
X1988Y1482D01*
X2030Y1482D02*
X2088Y1482D01*
X2130Y1482D02*
X2188Y1482D01*
X2230Y1482D02*
X2288Y1482D01*
X2330Y1482D02*
X2388Y1482D01*
X229Y1481D02*
X289Y1481D01*
X329Y1481D02*
X389Y1481D01*
X429Y1481D02*
X489Y1481D01*
X529Y1481D02*
X589Y1481D01*
X629Y1481D02*
X689Y1481D01*
X729Y1481D02*
X789Y1481D01*
X829Y1481D02*
X889Y1481D01*
X929Y1481D02*
X989Y1481D01*
X1029Y1481D02*
X1089Y1481D01*
X1129Y1481D02*
X1189Y1481D01*
X1429Y1481D02*
X1489Y1481D01*
X1529Y1481D02*
X1589Y1481D01*
X1629Y1481D02*
X1689Y1481D01*
X1729Y1481D02*
X1789Y1481D01*
X1829Y1481D02*
X1889Y1481D01*
X1929Y1481D02*
X1989Y1481D01*
X2029Y1481D02*
X2089Y1481D01*
X2129Y1481D02*
X2189Y1481D01*
X2229Y1481D02*
X2289Y1481D01*
X2329Y1481D02*
X2389Y1481D01*
X228Y1480D02*
X290Y1480D01*
X328Y1480D02*
X390Y1480D01*
X428Y1480D02*
X490Y1480D01*
X528Y1480D02*
X590Y1480D01*
X628Y1480D02*
X690Y1480D01*
X728Y1480D02*
X790Y1480D01*
X828Y1480D02*
X890Y1480D01*
X928Y1480D02*
X990Y1480D01*
X1028Y1480D02*
X1090Y1480D01*
X1128Y1480D02*
X1190Y1480D01*
X1428Y1480D02*
X1490Y1480D01*
X1528Y1480D02*
X1590Y1480D01*
X1628Y1480D02*
X1690Y1480D01*
X1728Y1480D02*
X1790Y1480D01*
X1828Y1480D02*
X1890Y1480D01*
X1928Y1480D02*
X1990Y1480D01*
X2028Y1480D02*
X2090Y1480D01*
X2128Y1480D02*
X2190Y1480D01*
X2228Y1480D02*
X2290Y1480D01*
X2328Y1480D02*
X2390Y1480D01*
X228Y1479D02*
X291Y1479D01*
X328Y1479D02*
X391Y1479D01*
X428Y1479D02*
X491Y1479D01*
X528Y1479D02*
X591Y1479D01*
X628Y1479D02*
X691Y1479D01*
X728Y1479D02*
X791Y1479D01*
X828Y1479D02*
X891Y1479D01*
X928Y1479D02*
X991Y1479D01*
X1028Y1479D02*
X1091Y1479D01*
X1128Y1479D02*
X1191Y1479D01*
X1428Y1479D02*
X1491Y1479D01*
X1528Y1479D02*
X1591Y1479D01*
X1628Y1479D02*
X1691Y1479D01*
X1728Y1479D02*
X1791Y1479D01*
X1828Y1479D02*
X1891Y1479D01*
X1928Y1479D02*
X1991Y1479D01*
X2028Y1479D02*
X2091Y1479D01*
X2128Y1479D02*
X2191Y1479D01*
X2228Y1479D02*
X2291Y1479D01*
X2328Y1479D02*
X2391Y1479D01*
X227Y1478D02*
X291Y1478D01*
X327Y1478D02*
X391Y1478D01*
X427Y1478D02*
X491Y1478D01*
X527Y1478D02*
X591Y1478D01*
X627Y1478D02*
X691Y1478D01*
X727Y1478D02*
X791Y1478D01*
X827Y1478D02*
X891Y1478D01*
X927Y1478D02*
X991Y1478D01*
X1027Y1478D02*
X1091Y1478D01*
X1127Y1478D02*
X1191Y1478D01*
X1427Y1478D02*
X1491Y1478D01*
X1527Y1478D02*
X1591Y1478D01*
X1627Y1478D02*
X1691Y1478D01*
X1727Y1478D02*
X1791Y1478D01*
X1827Y1478D02*
X1891Y1478D01*
X1927Y1478D02*
X1991Y1478D01*
X2027Y1478D02*
X2091Y1478D01*
X2127Y1478D02*
X2191Y1478D01*
X2227Y1478D02*
X2291Y1478D01*
X2327Y1478D02*
X2391Y1478D01*
X226Y1477D02*
X292Y1477D01*
X326Y1477D02*
X392Y1477D01*
X426Y1477D02*
X492Y1477D01*
X526Y1477D02*
X592Y1477D01*
X626Y1477D02*
X692Y1477D01*
X726Y1477D02*
X792Y1477D01*
X826Y1477D02*
X892Y1477D01*
X926Y1477D02*
X992Y1477D01*
X1026Y1477D02*
X1092Y1477D01*
X1126Y1477D02*
X1192Y1477D01*
X1426Y1477D02*
X1492Y1477D01*
X1526Y1477D02*
X1592Y1477D01*
X1626Y1477D02*
X1692Y1477D01*
X1726Y1477D02*
X1792Y1477D01*
X1826Y1477D02*
X1892Y1477D01*
X1926Y1477D02*
X1992Y1477D01*
X2026Y1477D02*
X2092Y1477D01*
X2126Y1477D02*
X2192Y1477D01*
X2226Y1477D02*
X2292Y1477D01*
X2326Y1477D02*
X2392Y1477D01*
X226Y1476D02*
X293Y1476D01*
X326Y1476D02*
X393Y1476D01*
X426Y1476D02*
X493Y1476D01*
X526Y1476D02*
X593Y1476D01*
X626Y1476D02*
X693Y1476D01*
X726Y1476D02*
X793Y1476D01*
X826Y1476D02*
X893Y1476D01*
X926Y1476D02*
X993Y1476D01*
X1026Y1476D02*
X1093Y1476D01*
X1126Y1476D02*
X1193Y1476D01*
X1426Y1476D02*
X1493Y1476D01*
X1526Y1476D02*
X1593Y1476D01*
X1626Y1476D02*
X1693Y1476D01*
X1726Y1476D02*
X1793Y1476D01*
X1826Y1476D02*
X1893Y1476D01*
X1926Y1476D02*
X1993Y1476D01*
X2026Y1476D02*
X2093Y1476D01*
X2126Y1476D02*
X2193Y1476D01*
X2226Y1476D02*
X2293Y1476D01*
X2326Y1476D02*
X2393Y1476D01*
X225Y1475D02*
X293Y1475D01*
X325Y1475D02*
X393Y1475D01*
X425Y1475D02*
X493Y1475D01*
X525Y1475D02*
X593Y1475D01*
X625Y1475D02*
X693Y1475D01*
X725Y1475D02*
X793Y1475D01*
X825Y1475D02*
X893Y1475D01*
X925Y1475D02*
X993Y1475D01*
X1025Y1475D02*
X1093Y1475D01*
X1125Y1475D02*
X1193Y1475D01*
X1425Y1475D02*
X1493Y1475D01*
X1525Y1475D02*
X1593Y1475D01*
X1625Y1475D02*
X1693Y1475D01*
X1725Y1475D02*
X1793Y1475D01*
X1825Y1475D02*
X1893Y1475D01*
X1925Y1475D02*
X1993Y1475D01*
X2025Y1475D02*
X2093Y1475D01*
X2125Y1475D02*
X2193Y1475D01*
X2225Y1475D02*
X2293Y1475D01*
X2325Y1475D02*
X2393Y1475D01*
X224Y1474D02*
X294Y1474D01*
X324Y1474D02*
X394Y1474D01*
X424Y1474D02*
X494Y1474D01*
X524Y1474D02*
X594Y1474D01*
X624Y1474D02*
X694Y1474D01*
X724Y1474D02*
X794Y1474D01*
X824Y1474D02*
X894Y1474D01*
X924Y1474D02*
X994Y1474D01*
X1024Y1474D02*
X1094Y1474D01*
X1124Y1474D02*
X1194Y1474D01*
X1424Y1474D02*
X1494Y1474D01*
X1524Y1474D02*
X1594Y1474D01*
X1624Y1474D02*
X1694Y1474D01*
X1724Y1474D02*
X1794Y1474D01*
X1824Y1474D02*
X1894Y1474D01*
X1924Y1474D02*
X1994Y1474D01*
X2024Y1474D02*
X2094Y1474D01*
X2124Y1474D02*
X2194Y1474D01*
X2224Y1474D02*
X2294Y1474D01*
X2324Y1474D02*
X2394Y1474D01*
X224Y1473D02*
X294Y1473D01*
X324Y1473D02*
X394Y1473D01*
X424Y1473D02*
X494Y1473D01*
X524Y1473D02*
X594Y1473D01*
X624Y1473D02*
X694Y1473D01*
X724Y1473D02*
X794Y1473D01*
X824Y1473D02*
X894Y1473D01*
X924Y1473D02*
X994Y1473D01*
X1024Y1473D02*
X1094Y1473D01*
X1124Y1473D02*
X1194Y1473D01*
X1424Y1473D02*
X1494Y1473D01*
X1524Y1473D02*
X1594Y1473D01*
X1624Y1473D02*
X1694Y1473D01*
X1724Y1473D02*
X1794Y1473D01*
X1824Y1473D02*
X1894Y1473D01*
X1924Y1473D02*
X1994Y1473D01*
X2024Y1473D02*
X2094Y1473D01*
X2124Y1473D02*
X2194Y1473D01*
X2224Y1473D02*
X2294Y1473D01*
X2324Y1473D02*
X2394Y1473D01*
X223Y1472D02*
X295Y1472D01*
X323Y1472D02*
X395Y1472D01*
X423Y1472D02*
X495Y1472D01*
X523Y1472D02*
X595Y1472D01*
X623Y1472D02*
X695Y1472D01*
X723Y1472D02*
X795Y1472D01*
X823Y1472D02*
X895Y1472D01*
X923Y1472D02*
X995Y1472D01*
X1023Y1472D02*
X1095Y1472D01*
X1123Y1472D02*
X1195Y1472D01*
X1423Y1472D02*
X1495Y1472D01*
X1523Y1472D02*
X1595Y1472D01*
X1623Y1472D02*
X1695Y1472D01*
X1723Y1472D02*
X1795Y1472D01*
X1823Y1472D02*
X1895Y1472D01*
X1923Y1472D02*
X1995Y1472D01*
X2023Y1472D02*
X2095Y1472D01*
X2123Y1472D02*
X2195Y1472D01*
X2223Y1472D02*
X2295Y1472D01*
X2323Y1472D02*
X2395Y1472D01*
X223Y1471D02*
X295Y1471D01*
X323Y1471D02*
X395Y1471D01*
X423Y1471D02*
X495Y1471D01*
X523Y1471D02*
X595Y1471D01*
X623Y1471D02*
X695Y1471D01*
X723Y1471D02*
X795Y1471D01*
X823Y1471D02*
X895Y1471D01*
X923Y1471D02*
X995Y1471D01*
X1023Y1471D02*
X1095Y1471D01*
X1123Y1471D02*
X1195Y1471D01*
X1423Y1471D02*
X1495Y1471D01*
X1523Y1471D02*
X1595Y1471D01*
X1623Y1471D02*
X1695Y1471D01*
X1723Y1471D02*
X1795Y1471D01*
X1823Y1471D02*
X1895Y1471D01*
X1923Y1471D02*
X1995Y1471D01*
X2023Y1471D02*
X2095Y1471D01*
X2123Y1471D02*
X2195Y1471D01*
X2223Y1471D02*
X2295Y1471D01*
X2323Y1471D02*
X2395Y1471D01*
X223Y1470D02*
X296Y1470D01*
X323Y1470D02*
X396Y1470D01*
X423Y1470D02*
X496Y1470D01*
X523Y1470D02*
X596Y1470D01*
X623Y1470D02*
X696Y1470D01*
X723Y1470D02*
X796Y1470D01*
X823Y1470D02*
X896Y1470D01*
X923Y1470D02*
X996Y1470D01*
X1023Y1470D02*
X1096Y1470D01*
X1123Y1470D02*
X1196Y1470D01*
X1422Y1470D02*
X1496Y1470D01*
X1522Y1470D02*
X1596Y1470D01*
X1622Y1470D02*
X1696Y1470D01*
X1722Y1470D02*
X1796Y1470D01*
X1822Y1470D02*
X1896Y1470D01*
X1922Y1470D02*
X1996Y1470D01*
X2022Y1470D02*
X2096Y1470D01*
X2122Y1470D02*
X2196Y1470D01*
X2222Y1470D02*
X2296Y1470D01*
X2322Y1470D02*
X2396Y1470D01*
X222Y1469D02*
X296Y1469D01*
X322Y1469D02*
X396Y1469D01*
X422Y1469D02*
X496Y1469D01*
X522Y1469D02*
X596Y1469D01*
X622Y1469D02*
X696Y1469D01*
X722Y1469D02*
X796Y1469D01*
X822Y1469D02*
X896Y1469D01*
X922Y1469D02*
X996Y1469D01*
X1022Y1469D02*
X1096Y1469D01*
X1122Y1469D02*
X1196Y1469D01*
X1422Y1469D02*
X1496Y1469D01*
X1522Y1469D02*
X1596Y1469D01*
X1622Y1469D02*
X1696Y1469D01*
X1722Y1469D02*
X1796Y1469D01*
X1822Y1469D02*
X1896Y1469D01*
X1922Y1469D02*
X1996Y1469D01*
X2022Y1469D02*
X2096Y1469D01*
X2122Y1469D02*
X2196Y1469D01*
X2222Y1469D02*
X2296Y1469D01*
X2322Y1469D02*
X2396Y1469D01*
X222Y1468D02*
X296Y1468D01*
X322Y1468D02*
X396Y1468D01*
X422Y1468D02*
X496Y1468D01*
X522Y1468D02*
X596Y1468D01*
X622Y1468D02*
X696Y1468D01*
X722Y1468D02*
X796Y1468D01*
X822Y1468D02*
X896Y1468D01*
X922Y1468D02*
X996Y1468D01*
X1022Y1468D02*
X1096Y1468D01*
X1122Y1468D02*
X1196Y1468D01*
X1422Y1468D02*
X1496Y1468D01*
X1522Y1468D02*
X1596Y1468D01*
X1622Y1468D02*
X1696Y1468D01*
X1722Y1468D02*
X1796Y1468D01*
X1822Y1468D02*
X1896Y1468D01*
X1922Y1468D02*
X1996Y1468D01*
X2022Y1468D02*
X2096Y1468D01*
X2122Y1468D02*
X2196Y1468D01*
X2222Y1468D02*
X2296Y1468D01*
X2322Y1468D02*
X2396Y1468D01*
X221Y1467D02*
X297Y1467D01*
X321Y1467D02*
X397Y1467D01*
X421Y1467D02*
X497Y1467D01*
X521Y1467D02*
X597Y1467D01*
X621Y1467D02*
X697Y1467D01*
X721Y1467D02*
X797Y1467D01*
X821Y1467D02*
X897Y1467D01*
X921Y1467D02*
X997Y1467D01*
X1021Y1467D02*
X1097Y1467D01*
X1121Y1467D02*
X1197Y1467D01*
X1421Y1467D02*
X1497Y1467D01*
X1521Y1467D02*
X1597Y1467D01*
X1621Y1467D02*
X1697Y1467D01*
X1721Y1467D02*
X1797Y1467D01*
X1821Y1467D02*
X1897Y1467D01*
X1921Y1467D02*
X1997Y1467D01*
X2021Y1467D02*
X2097Y1467D01*
X2121Y1467D02*
X2197Y1467D01*
X2221Y1467D02*
X2297Y1467D01*
X2321Y1467D02*
X2397Y1467D01*
X221Y1466D02*
X297Y1466D01*
X321Y1466D02*
X397Y1466D01*
X421Y1466D02*
X497Y1466D01*
X521Y1466D02*
X597Y1466D01*
X621Y1466D02*
X697Y1466D01*
X721Y1466D02*
X797Y1466D01*
X821Y1466D02*
X897Y1466D01*
X921Y1466D02*
X997Y1466D01*
X1021Y1466D02*
X1097Y1466D01*
X1121Y1466D02*
X1197Y1466D01*
X1421Y1466D02*
X1497Y1466D01*
X1521Y1466D02*
X1597Y1466D01*
X1621Y1466D02*
X1697Y1466D01*
X1721Y1466D02*
X1797Y1466D01*
X1821Y1466D02*
X1897Y1466D01*
X1921Y1466D02*
X1997Y1466D01*
X2021Y1466D02*
X2097Y1466D01*
X2121Y1466D02*
X2197Y1466D01*
X2221Y1466D02*
X2297Y1466D01*
X2321Y1466D02*
X2397Y1466D01*
X221Y1465D02*
X297Y1465D01*
X321Y1465D02*
X397Y1465D01*
X421Y1465D02*
X497Y1465D01*
X521Y1465D02*
X597Y1465D01*
X621Y1465D02*
X697Y1465D01*
X721Y1465D02*
X797Y1465D01*
X821Y1465D02*
X897Y1465D01*
X921Y1465D02*
X997Y1465D01*
X1021Y1465D02*
X1097Y1465D01*
X1121Y1465D02*
X1197Y1465D01*
X1421Y1465D02*
X1497Y1465D01*
X1521Y1465D02*
X1597Y1465D01*
X1621Y1465D02*
X1697Y1465D01*
X1721Y1465D02*
X1797Y1465D01*
X1821Y1465D02*
X1897Y1465D01*
X1921Y1465D02*
X1997Y1465D01*
X2021Y1465D02*
X2097Y1465D01*
X2121Y1465D02*
X2197Y1465D01*
X2221Y1465D02*
X2297Y1465D01*
X2321Y1465D02*
X2397Y1465D01*
X221Y1464D02*
X298Y1464D01*
X321Y1464D02*
X398Y1464D01*
X421Y1464D02*
X498Y1464D01*
X521Y1464D02*
X598Y1464D01*
X621Y1464D02*
X698Y1464D01*
X721Y1464D02*
X798Y1464D01*
X821Y1464D02*
X898Y1464D01*
X921Y1464D02*
X998Y1464D01*
X1021Y1464D02*
X1098Y1464D01*
X1121Y1464D02*
X1198Y1464D01*
X1421Y1464D02*
X1498Y1464D01*
X1521Y1464D02*
X1598Y1464D01*
X1621Y1464D02*
X1698Y1464D01*
X1721Y1464D02*
X1797Y1464D01*
X1821Y1464D02*
X1897Y1464D01*
X1921Y1464D02*
X1997Y1464D01*
X2021Y1464D02*
X2097Y1464D01*
X2121Y1464D02*
X2197Y1464D01*
X2221Y1464D02*
X2297Y1464D01*
X2321Y1464D02*
X2397Y1464D01*
X221Y1463D02*
X298Y1463D01*
X320Y1463D02*
X398Y1463D01*
X420Y1463D02*
X498Y1463D01*
X520Y1463D02*
X598Y1463D01*
X620Y1463D02*
X698Y1463D01*
X720Y1463D02*
X798Y1463D01*
X820Y1463D02*
X898Y1463D01*
X920Y1463D02*
X998Y1463D01*
X1020Y1463D02*
X1098Y1463D01*
X1120Y1463D02*
X1198Y1463D01*
X1420Y1463D02*
X1498Y1463D01*
X1520Y1463D02*
X1598Y1463D01*
X1620Y1463D02*
X1698Y1463D01*
X1720Y1463D02*
X1798Y1463D01*
X1820Y1463D02*
X1898Y1463D01*
X1920Y1463D02*
X1998Y1463D01*
X2020Y1463D02*
X2098Y1463D01*
X2120Y1463D02*
X2198Y1463D01*
X2220Y1463D02*
X2298Y1463D01*
X2320Y1463D02*
X2398Y1463D01*
X220Y1462D02*
X298Y1462D01*
X320Y1462D02*
X398Y1462D01*
X420Y1462D02*
X498Y1462D01*
X520Y1462D02*
X598Y1462D01*
X620Y1462D02*
X698Y1462D01*
X720Y1462D02*
X798Y1462D01*
X820Y1462D02*
X898Y1462D01*
X920Y1462D02*
X998Y1462D01*
X1020Y1462D02*
X1098Y1462D01*
X1120Y1462D02*
X1198Y1462D01*
X1420Y1462D02*
X1498Y1462D01*
X1520Y1462D02*
X1598Y1462D01*
X1620Y1462D02*
X1698Y1462D01*
X1720Y1462D02*
X1798Y1462D01*
X1820Y1462D02*
X1898Y1462D01*
X1920Y1462D02*
X1998Y1462D01*
X2020Y1462D02*
X2098Y1462D01*
X2120Y1462D02*
X2198Y1462D01*
X2220Y1462D02*
X2298Y1462D01*
X2320Y1462D02*
X2398Y1462D01*
X220Y1461D02*
X298Y1461D01*
X320Y1461D02*
X398Y1461D01*
X420Y1461D02*
X498Y1461D01*
X520Y1461D02*
X598Y1461D01*
X620Y1461D02*
X698Y1461D01*
X720Y1461D02*
X798Y1461D01*
X820Y1461D02*
X898Y1461D01*
X920Y1461D02*
X998Y1461D01*
X1020Y1461D02*
X1098Y1461D01*
X1120Y1461D02*
X1198Y1461D01*
X1420Y1461D02*
X1498Y1461D01*
X1520Y1461D02*
X1598Y1461D01*
X1620Y1461D02*
X1698Y1461D01*
X1720Y1461D02*
X1798Y1461D01*
X1820Y1461D02*
X1898Y1461D01*
X1920Y1461D02*
X1998Y1461D01*
X2020Y1461D02*
X2098Y1461D01*
X2120Y1461D02*
X2198Y1461D01*
X2220Y1461D02*
X2298Y1461D01*
X2320Y1461D02*
X2398Y1461D01*
X220Y1460D02*
X298Y1460D01*
X320Y1460D02*
X398Y1460D01*
X420Y1460D02*
X498Y1460D01*
X520Y1460D02*
X598Y1460D01*
X620Y1460D02*
X698Y1460D01*
X720Y1460D02*
X798Y1460D01*
X820Y1460D02*
X898Y1460D01*
X920Y1460D02*
X998Y1460D01*
X1020Y1460D02*
X1098Y1460D01*
X1120Y1460D02*
X1198Y1460D01*
X1420Y1460D02*
X1498Y1460D01*
X1520Y1460D02*
X1598Y1460D01*
X1620Y1460D02*
X1698Y1460D01*
X1720Y1460D02*
X1798Y1460D01*
X1820Y1460D02*
X1898Y1460D01*
X1920Y1460D02*
X1998Y1460D01*
X2020Y1460D02*
X2098Y1460D01*
X2120Y1460D02*
X2198Y1460D01*
X2220Y1460D02*
X2298Y1460D01*
X2320Y1460D02*
X2398Y1460D01*
X220Y1459D02*
X298Y1459D01*
X320Y1459D02*
X398Y1459D01*
X420Y1459D02*
X498Y1459D01*
X520Y1459D02*
X598Y1459D01*
X620Y1459D02*
X698Y1459D01*
X720Y1459D02*
X798Y1459D01*
X820Y1459D02*
X898Y1459D01*
X920Y1459D02*
X998Y1459D01*
X1020Y1459D02*
X1098Y1459D01*
X1120Y1459D02*
X1198Y1459D01*
X1420Y1459D02*
X1498Y1459D01*
X1520Y1459D02*
X1598Y1459D01*
X1620Y1459D02*
X1698Y1459D01*
X1720Y1459D02*
X1798Y1459D01*
X1820Y1459D02*
X1898Y1459D01*
X1920Y1459D02*
X1998Y1459D01*
X2020Y1459D02*
X2098Y1459D01*
X2120Y1459D02*
X2198Y1459D01*
X2220Y1459D02*
X2298Y1459D01*
X2320Y1459D02*
X2398Y1459D01*
X220Y1458D02*
X298Y1458D01*
X320Y1458D02*
X398Y1458D01*
X420Y1458D02*
X498Y1458D01*
X520Y1458D02*
X598Y1458D01*
X620Y1458D02*
X698Y1458D01*
X720Y1458D02*
X798Y1458D01*
X820Y1458D02*
X898Y1458D01*
X920Y1458D02*
X998Y1458D01*
X1020Y1458D02*
X1098Y1458D01*
X1120Y1458D02*
X1198Y1458D01*
X1420Y1458D02*
X1498Y1458D01*
X1520Y1458D02*
X1598Y1458D01*
X1620Y1458D02*
X1698Y1458D01*
X1720Y1458D02*
X1798Y1458D01*
X1820Y1458D02*
X1898Y1458D01*
X1920Y1458D02*
X1998Y1458D01*
X2020Y1458D02*
X2098Y1458D01*
X2120Y1458D02*
X2198Y1458D01*
X2220Y1458D02*
X2298Y1458D01*
X2320Y1458D02*
X2398Y1458D01*
X220Y1457D02*
X299Y1457D01*
X320Y1457D02*
X399Y1457D01*
X420Y1457D02*
X499Y1457D01*
X520Y1457D02*
X599Y1457D01*
X620Y1457D02*
X699Y1457D01*
X720Y1457D02*
X799Y1457D01*
X820Y1457D02*
X899Y1457D01*
X920Y1457D02*
X999Y1457D01*
X1020Y1457D02*
X1099Y1457D01*
X1120Y1457D02*
X1199Y1457D01*
X1420Y1457D02*
X1498Y1457D01*
X1520Y1457D02*
X1598Y1457D01*
X1620Y1457D02*
X1698Y1457D01*
X1720Y1457D02*
X1798Y1457D01*
X1820Y1457D02*
X1898Y1457D01*
X1920Y1457D02*
X1998Y1457D01*
X2020Y1457D02*
X2098Y1457D01*
X2120Y1457D02*
X2198Y1457D01*
X2220Y1457D02*
X2298Y1457D01*
X2320Y1457D02*
X2398Y1457D01*
X220Y1456D02*
X299Y1456D01*
X320Y1456D02*
X399Y1456D01*
X420Y1456D02*
X499Y1456D01*
X520Y1456D02*
X599Y1456D01*
X620Y1456D02*
X699Y1456D01*
X720Y1456D02*
X799Y1456D01*
X820Y1456D02*
X899Y1456D01*
X920Y1456D02*
X999Y1456D01*
X1020Y1456D02*
X1099Y1456D01*
X1120Y1456D02*
X1199Y1456D01*
X1420Y1456D02*
X1499Y1456D01*
X1520Y1456D02*
X1599Y1456D01*
X1620Y1456D02*
X1699Y1456D01*
X1720Y1456D02*
X1799Y1456D01*
X1820Y1456D02*
X1899Y1456D01*
X1920Y1456D02*
X1999Y1456D01*
X2020Y1456D02*
X2099Y1456D01*
X2120Y1456D02*
X2199Y1456D01*
X2220Y1456D02*
X2299Y1456D01*
X2320Y1456D02*
X2399Y1456D01*
X220Y1455D02*
X299Y1455D01*
X320Y1455D02*
X399Y1455D01*
X420Y1455D02*
X499Y1455D01*
X520Y1455D02*
X599Y1455D01*
X620Y1455D02*
X699Y1455D01*
X720Y1455D02*
X799Y1455D01*
X820Y1455D02*
X899Y1455D01*
X920Y1455D02*
X999Y1455D01*
X1020Y1455D02*
X1099Y1455D01*
X1120Y1455D02*
X1199Y1455D01*
X1420Y1455D02*
X1499Y1455D01*
X1520Y1455D02*
X1599Y1455D01*
X1620Y1455D02*
X1699Y1455D01*
X1720Y1455D02*
X1799Y1455D01*
X1820Y1455D02*
X1899Y1455D01*
X1920Y1455D02*
X1999Y1455D01*
X2020Y1455D02*
X2099Y1455D01*
X2120Y1455D02*
X2199Y1455D01*
X2220Y1455D02*
X2299Y1455D01*
X2320Y1455D02*
X2399Y1455D01*
X220Y1454D02*
X299Y1454D01*
X320Y1454D02*
X399Y1454D01*
X420Y1454D02*
X499Y1454D01*
X520Y1454D02*
X599Y1454D01*
X620Y1454D02*
X699Y1454D01*
X720Y1454D02*
X799Y1454D01*
X820Y1454D02*
X899Y1454D01*
X920Y1454D02*
X999Y1454D01*
X1020Y1454D02*
X1099Y1454D01*
X1120Y1454D02*
X1199Y1454D01*
X1420Y1454D02*
X1499Y1454D01*
X1520Y1454D02*
X1599Y1454D01*
X1620Y1454D02*
X1699Y1454D01*
X1720Y1454D02*
X1799Y1454D01*
X1820Y1454D02*
X1899Y1454D01*
X1920Y1454D02*
X1999Y1454D01*
X2020Y1454D02*
X2099Y1454D01*
X2120Y1454D02*
X2198Y1454D01*
X2220Y1454D02*
X2298Y1454D01*
X2320Y1454D02*
X2398Y1454D01*
X220Y1453D02*
X299Y1453D01*
X320Y1453D02*
X399Y1453D01*
X420Y1453D02*
X499Y1453D01*
X520Y1453D02*
X599Y1453D01*
X620Y1453D02*
X698Y1453D01*
X720Y1453D02*
X798Y1453D01*
X820Y1453D02*
X898Y1453D01*
X920Y1453D02*
X998Y1453D01*
X1020Y1453D02*
X1098Y1453D01*
X1120Y1453D02*
X1198Y1453D01*
X1420Y1453D02*
X1498Y1453D01*
X1520Y1453D02*
X1598Y1453D01*
X1620Y1453D02*
X1698Y1453D01*
X1720Y1453D02*
X1798Y1453D01*
X1820Y1453D02*
X1898Y1453D01*
X1920Y1453D02*
X1998Y1453D01*
X2020Y1453D02*
X2098Y1453D01*
X2120Y1453D02*
X2198Y1453D01*
X2220Y1453D02*
X2298Y1453D01*
X2320Y1453D02*
X2398Y1453D01*
X220Y1452D02*
X298Y1452D01*
X320Y1452D02*
X398Y1452D01*
X420Y1452D02*
X498Y1452D01*
X520Y1452D02*
X598Y1452D01*
X620Y1452D02*
X698Y1452D01*
X720Y1452D02*
X798Y1452D01*
X820Y1452D02*
X898Y1452D01*
X920Y1452D02*
X998Y1452D01*
X1020Y1452D02*
X1098Y1452D01*
X1120Y1452D02*
X1198Y1452D01*
X1420Y1452D02*
X1498Y1452D01*
X1520Y1452D02*
X1598Y1452D01*
X1620Y1452D02*
X1698Y1452D01*
X1720Y1452D02*
X1798Y1452D01*
X1820Y1452D02*
X1898Y1452D01*
X1920Y1452D02*
X1998Y1452D01*
X2020Y1452D02*
X2098Y1452D01*
X2120Y1452D02*
X2198Y1452D01*
X2220Y1452D02*
X2298Y1452D01*
X2320Y1452D02*
X2398Y1452D01*
X220Y1451D02*
X298Y1451D01*
X320Y1451D02*
X398Y1451D01*
X420Y1451D02*
X498Y1451D01*
X520Y1451D02*
X598Y1451D01*
X620Y1451D02*
X698Y1451D01*
X720Y1451D02*
X798Y1451D01*
X820Y1451D02*
X898Y1451D01*
X920Y1451D02*
X998Y1451D01*
X1020Y1451D02*
X1098Y1451D01*
X1120Y1451D02*
X1198Y1451D01*
X1420Y1451D02*
X1498Y1451D01*
X1520Y1451D02*
X1598Y1451D01*
X1620Y1451D02*
X1698Y1451D01*
X1720Y1451D02*
X1798Y1451D01*
X1820Y1451D02*
X1898Y1451D01*
X1920Y1451D02*
X1998Y1451D01*
X2020Y1451D02*
X2098Y1451D01*
X2120Y1451D02*
X2198Y1451D01*
X2220Y1451D02*
X2298Y1451D01*
X2320Y1451D02*
X2398Y1451D01*
X220Y1450D02*
X298Y1450D01*
X320Y1450D02*
X398Y1450D01*
X420Y1450D02*
X498Y1450D01*
X520Y1450D02*
X598Y1450D01*
X620Y1450D02*
X698Y1450D01*
X720Y1450D02*
X798Y1450D01*
X820Y1450D02*
X898Y1450D01*
X920Y1450D02*
X998Y1450D01*
X1020Y1450D02*
X1098Y1450D01*
X1120Y1450D02*
X1198Y1450D01*
X1420Y1450D02*
X1498Y1450D01*
X1520Y1450D02*
X1598Y1450D01*
X1620Y1450D02*
X1698Y1450D01*
X1720Y1450D02*
X1798Y1450D01*
X1820Y1450D02*
X1898Y1450D01*
X1920Y1450D02*
X1998Y1450D01*
X2020Y1450D02*
X2098Y1450D01*
X2120Y1450D02*
X2198Y1450D01*
X2220Y1450D02*
X2298Y1450D01*
X2320Y1450D02*
X2398Y1450D01*
X220Y1449D02*
X298Y1449D01*
X320Y1449D02*
X398Y1449D01*
X420Y1449D02*
X498Y1449D01*
X520Y1449D02*
X598Y1449D01*
X620Y1449D02*
X698Y1449D01*
X720Y1449D02*
X798Y1449D01*
X820Y1449D02*
X898Y1449D01*
X920Y1449D02*
X998Y1449D01*
X1020Y1449D02*
X1098Y1449D01*
X1120Y1449D02*
X1198Y1449D01*
X1420Y1449D02*
X1498Y1449D01*
X1520Y1449D02*
X1598Y1449D01*
X1620Y1449D02*
X1698Y1449D01*
X1720Y1449D02*
X1798Y1449D01*
X1820Y1449D02*
X1898Y1449D01*
X1920Y1449D02*
X1998Y1449D01*
X2020Y1449D02*
X2098Y1449D01*
X2120Y1449D02*
X2198Y1449D01*
X2220Y1449D02*
X2298Y1449D01*
X2320Y1449D02*
X2398Y1449D01*
X220Y1448D02*
X298Y1448D01*
X320Y1448D02*
X398Y1448D01*
X420Y1448D02*
X498Y1448D01*
X520Y1448D02*
X598Y1448D01*
X620Y1448D02*
X698Y1448D01*
X720Y1448D02*
X798Y1448D01*
X820Y1448D02*
X898Y1448D01*
X920Y1448D02*
X998Y1448D01*
X1020Y1448D02*
X1098Y1448D01*
X1120Y1448D02*
X1198Y1448D01*
X1420Y1448D02*
X1498Y1448D01*
X1520Y1448D02*
X1598Y1448D01*
X1620Y1448D02*
X1698Y1448D01*
X1720Y1448D02*
X1798Y1448D01*
X1820Y1448D02*
X1898Y1448D01*
X1920Y1448D02*
X1998Y1448D01*
X2020Y1448D02*
X2098Y1448D01*
X2120Y1448D02*
X2198Y1448D01*
X2220Y1448D02*
X2298Y1448D01*
X2320Y1448D02*
X2398Y1448D01*
X221Y1447D02*
X298Y1447D01*
X321Y1447D02*
X398Y1447D01*
X421Y1447D02*
X498Y1447D01*
X521Y1447D02*
X598Y1447D01*
X621Y1447D02*
X698Y1447D01*
X721Y1447D02*
X798Y1447D01*
X821Y1447D02*
X898Y1447D01*
X921Y1447D02*
X998Y1447D01*
X1021Y1447D02*
X1098Y1447D01*
X1121Y1447D02*
X1198Y1447D01*
X1421Y1447D02*
X1498Y1447D01*
X1521Y1447D02*
X1598Y1447D01*
X1621Y1447D02*
X1698Y1447D01*
X1721Y1447D02*
X1798Y1447D01*
X1820Y1447D02*
X1898Y1447D01*
X1920Y1447D02*
X1998Y1447D01*
X2020Y1447D02*
X2098Y1447D01*
X2120Y1447D02*
X2198Y1447D01*
X2220Y1447D02*
X2298Y1447D01*
X2320Y1447D02*
X2398Y1447D01*
X221Y1446D02*
X297Y1446D01*
X321Y1446D02*
X397Y1446D01*
X421Y1446D02*
X497Y1446D01*
X521Y1446D02*
X597Y1446D01*
X621Y1446D02*
X697Y1446D01*
X721Y1446D02*
X797Y1446D01*
X821Y1446D02*
X897Y1446D01*
X921Y1446D02*
X997Y1446D01*
X1021Y1446D02*
X1097Y1446D01*
X1121Y1446D02*
X1197Y1446D01*
X1421Y1446D02*
X1497Y1446D01*
X1521Y1446D02*
X1597Y1446D01*
X1621Y1446D02*
X1697Y1446D01*
X1721Y1446D02*
X1797Y1446D01*
X1821Y1446D02*
X1897Y1446D01*
X1921Y1446D02*
X1997Y1446D01*
X2021Y1446D02*
X2097Y1446D01*
X2121Y1446D02*
X2197Y1446D01*
X2221Y1446D02*
X2297Y1446D01*
X2321Y1446D02*
X2397Y1446D01*
X221Y1445D02*
X297Y1445D01*
X321Y1445D02*
X397Y1445D01*
X421Y1445D02*
X497Y1445D01*
X521Y1445D02*
X597Y1445D01*
X621Y1445D02*
X697Y1445D01*
X721Y1445D02*
X797Y1445D01*
X821Y1445D02*
X897Y1445D01*
X921Y1445D02*
X997Y1445D01*
X1021Y1445D02*
X1097Y1445D01*
X1121Y1445D02*
X1197Y1445D01*
X1421Y1445D02*
X1497Y1445D01*
X1521Y1445D02*
X1597Y1445D01*
X1621Y1445D02*
X1697Y1445D01*
X1721Y1445D02*
X1797Y1445D01*
X1821Y1445D02*
X1897Y1445D01*
X1921Y1445D02*
X1997Y1445D01*
X2021Y1445D02*
X2097Y1445D01*
X2121Y1445D02*
X2197Y1445D01*
X2221Y1445D02*
X2297Y1445D01*
X2321Y1445D02*
X2397Y1445D01*
X221Y1444D02*
X297Y1444D01*
X321Y1444D02*
X397Y1444D01*
X421Y1444D02*
X497Y1444D01*
X521Y1444D02*
X597Y1444D01*
X621Y1444D02*
X697Y1444D01*
X721Y1444D02*
X797Y1444D01*
X821Y1444D02*
X897Y1444D01*
X921Y1444D02*
X997Y1444D01*
X1021Y1444D02*
X1097Y1444D01*
X1121Y1444D02*
X1197Y1444D01*
X1421Y1444D02*
X1497Y1444D01*
X1521Y1444D02*
X1597Y1444D01*
X1621Y1444D02*
X1697Y1444D01*
X1721Y1444D02*
X1797Y1444D01*
X1821Y1444D02*
X1897Y1444D01*
X1921Y1444D02*
X1997Y1444D01*
X2021Y1444D02*
X2097Y1444D01*
X2121Y1444D02*
X2197Y1444D01*
X2221Y1444D02*
X2297Y1444D01*
X2321Y1444D02*
X2397Y1444D01*
X222Y1443D02*
X297Y1443D01*
X322Y1443D02*
X397Y1443D01*
X422Y1443D02*
X497Y1443D01*
X522Y1443D02*
X597Y1443D01*
X622Y1443D02*
X697Y1443D01*
X722Y1443D02*
X797Y1443D01*
X822Y1443D02*
X897Y1443D01*
X922Y1443D02*
X997Y1443D01*
X1022Y1443D02*
X1097Y1443D01*
X1122Y1443D02*
X1197Y1443D01*
X1422Y1443D02*
X1497Y1443D01*
X1522Y1443D02*
X1597Y1443D01*
X1622Y1443D02*
X1697Y1443D01*
X1722Y1443D02*
X1797Y1443D01*
X1822Y1443D02*
X1897Y1443D01*
X1922Y1443D02*
X1997Y1443D01*
X2022Y1443D02*
X2097Y1443D01*
X2122Y1443D02*
X2197Y1443D01*
X2222Y1443D02*
X2297Y1443D01*
X2322Y1443D02*
X2397Y1443D01*
X222Y1442D02*
X296Y1442D01*
X322Y1442D02*
X396Y1442D01*
X422Y1442D02*
X496Y1442D01*
X522Y1442D02*
X596Y1442D01*
X622Y1442D02*
X696Y1442D01*
X722Y1442D02*
X796Y1442D01*
X822Y1442D02*
X896Y1442D01*
X922Y1442D02*
X996Y1442D01*
X1022Y1442D02*
X1096Y1442D01*
X1122Y1442D02*
X1196Y1442D01*
X1422Y1442D02*
X1496Y1442D01*
X1522Y1442D02*
X1596Y1442D01*
X1622Y1442D02*
X1696Y1442D01*
X1722Y1442D02*
X1796Y1442D01*
X1822Y1442D02*
X1896Y1442D01*
X1922Y1442D02*
X1996Y1442D01*
X2022Y1442D02*
X2096Y1442D01*
X2122Y1442D02*
X2196Y1442D01*
X2222Y1442D02*
X2296Y1442D01*
X2322Y1442D02*
X2396Y1442D01*
X222Y1441D02*
X296Y1441D01*
X322Y1441D02*
X396Y1441D01*
X422Y1441D02*
X496Y1441D01*
X522Y1441D02*
X596Y1441D01*
X622Y1441D02*
X696Y1441D01*
X722Y1441D02*
X796Y1441D01*
X822Y1441D02*
X896Y1441D01*
X922Y1441D02*
X996Y1441D01*
X1022Y1441D02*
X1096Y1441D01*
X1122Y1441D02*
X1196Y1441D01*
X1422Y1441D02*
X1496Y1441D01*
X1522Y1441D02*
X1596Y1441D01*
X1622Y1441D02*
X1696Y1441D01*
X1722Y1441D02*
X1796Y1441D01*
X1822Y1441D02*
X1896Y1441D01*
X1922Y1441D02*
X1996Y1441D01*
X2022Y1441D02*
X2096Y1441D01*
X2122Y1441D02*
X2196Y1441D01*
X2222Y1441D02*
X2296Y1441D01*
X2322Y1441D02*
X2396Y1441D01*
X223Y1440D02*
X296Y1440D01*
X323Y1440D02*
X396Y1440D01*
X423Y1440D02*
X496Y1440D01*
X523Y1440D02*
X596Y1440D01*
X623Y1440D02*
X696Y1440D01*
X723Y1440D02*
X796Y1440D01*
X823Y1440D02*
X896Y1440D01*
X923Y1440D02*
X996Y1440D01*
X1023Y1440D02*
X1096Y1440D01*
X1123Y1440D02*
X1196Y1440D01*
X1423Y1440D02*
X1496Y1440D01*
X1523Y1440D02*
X1596Y1440D01*
X1623Y1440D02*
X1696Y1440D01*
X1723Y1440D02*
X1796Y1440D01*
X1823Y1440D02*
X1896Y1440D01*
X1923Y1440D02*
X1996Y1440D01*
X2023Y1440D02*
X2096Y1440D01*
X2123Y1440D02*
X2196Y1440D01*
X2223Y1440D02*
X2296Y1440D01*
X2323Y1440D02*
X2396Y1440D01*
X223Y1439D02*
X295Y1439D01*
X323Y1439D02*
X395Y1439D01*
X423Y1439D02*
X495Y1439D01*
X523Y1439D02*
X595Y1439D01*
X623Y1439D02*
X695Y1439D01*
X723Y1439D02*
X795Y1439D01*
X823Y1439D02*
X895Y1439D01*
X923Y1439D02*
X995Y1439D01*
X1023Y1439D02*
X1095Y1439D01*
X1123Y1439D02*
X1195Y1439D01*
X1423Y1439D02*
X1495Y1439D01*
X1523Y1439D02*
X1595Y1439D01*
X1623Y1439D02*
X1695Y1439D01*
X1723Y1439D02*
X1795Y1439D01*
X1823Y1439D02*
X1895Y1439D01*
X1923Y1439D02*
X1995Y1439D01*
X2023Y1439D02*
X2095Y1439D01*
X2123Y1439D02*
X2195Y1439D01*
X2223Y1439D02*
X2295Y1439D01*
X2323Y1439D02*
X2395Y1439D01*
X224Y1438D02*
X295Y1438D01*
X324Y1438D02*
X395Y1438D01*
X424Y1438D02*
X495Y1438D01*
X524Y1438D02*
X595Y1438D01*
X624Y1438D02*
X695Y1438D01*
X724Y1438D02*
X795Y1438D01*
X824Y1438D02*
X895Y1438D01*
X924Y1438D02*
X995Y1438D01*
X1024Y1438D02*
X1095Y1438D01*
X1124Y1438D02*
X1195Y1438D01*
X1424Y1438D02*
X1495Y1438D01*
X1524Y1438D02*
X1595Y1438D01*
X1624Y1438D02*
X1695Y1438D01*
X1724Y1438D02*
X1795Y1438D01*
X1824Y1438D02*
X1895Y1438D01*
X1924Y1438D02*
X1995Y1438D01*
X2023Y1438D02*
X2095Y1438D01*
X2123Y1438D02*
X2195Y1438D01*
X2223Y1438D02*
X2295Y1438D01*
X2323Y1438D02*
X2395Y1438D01*
X224Y1437D02*
X294Y1437D01*
X324Y1437D02*
X394Y1437D01*
X424Y1437D02*
X494Y1437D01*
X524Y1437D02*
X594Y1437D01*
X624Y1437D02*
X694Y1437D01*
X724Y1437D02*
X794Y1437D01*
X824Y1437D02*
X894Y1437D01*
X924Y1437D02*
X994Y1437D01*
X1024Y1437D02*
X1094Y1437D01*
X1124Y1437D02*
X1194Y1437D01*
X1424Y1437D02*
X1494Y1437D01*
X1524Y1437D02*
X1594Y1437D01*
X1624Y1437D02*
X1694Y1437D01*
X1724Y1437D02*
X1794Y1437D01*
X1824Y1437D02*
X1894Y1437D01*
X1924Y1437D02*
X1994Y1437D01*
X2024Y1437D02*
X2094Y1437D01*
X2124Y1437D02*
X2194Y1437D01*
X2224Y1437D02*
X2294Y1437D01*
X2324Y1437D02*
X2394Y1437D01*
X225Y1436D02*
X294Y1436D01*
X325Y1436D02*
X394Y1436D01*
X425Y1436D02*
X494Y1436D01*
X525Y1436D02*
X594Y1436D01*
X625Y1436D02*
X694Y1436D01*
X725Y1436D02*
X794Y1436D01*
X825Y1436D02*
X894Y1436D01*
X925Y1436D02*
X994Y1436D01*
X1025Y1436D02*
X1094Y1436D01*
X1125Y1436D02*
X1194Y1436D01*
X1425Y1436D02*
X1494Y1436D01*
X1525Y1436D02*
X1594Y1436D01*
X1625Y1436D02*
X1694Y1436D01*
X1725Y1436D02*
X1794Y1436D01*
X1825Y1436D02*
X1894Y1436D01*
X1925Y1436D02*
X1994Y1436D01*
X2025Y1436D02*
X2094Y1436D01*
X2125Y1436D02*
X2194Y1436D01*
X2225Y1436D02*
X2294Y1436D01*
X2325Y1436D02*
X2394Y1436D01*
X225Y1435D02*
X293Y1435D01*
X325Y1435D02*
X393Y1435D01*
X425Y1435D02*
X493Y1435D01*
X525Y1435D02*
X593Y1435D01*
X625Y1435D02*
X693Y1435D01*
X725Y1435D02*
X793Y1435D01*
X825Y1435D02*
X893Y1435D01*
X925Y1435D02*
X993Y1435D01*
X1025Y1435D02*
X1093Y1435D01*
X1125Y1435D02*
X1193Y1435D01*
X1425Y1435D02*
X1493Y1435D01*
X1525Y1435D02*
X1593Y1435D01*
X1625Y1435D02*
X1693Y1435D01*
X1725Y1435D02*
X1793Y1435D01*
X1825Y1435D02*
X1893Y1435D01*
X1925Y1435D02*
X1993Y1435D01*
X2025Y1435D02*
X2093Y1435D01*
X2125Y1435D02*
X2193Y1435D01*
X2225Y1435D02*
X2293Y1435D01*
X2325Y1435D02*
X2393Y1435D01*
X226Y1434D02*
X292Y1434D01*
X326Y1434D02*
X392Y1434D01*
X426Y1434D02*
X492Y1434D01*
X526Y1434D02*
X592Y1434D01*
X626Y1434D02*
X692Y1434D01*
X726Y1434D02*
X792Y1434D01*
X826Y1434D02*
X892Y1434D01*
X926Y1434D02*
X992Y1434D01*
X1026Y1434D02*
X1092Y1434D01*
X1126Y1434D02*
X1192Y1434D01*
X1426Y1434D02*
X1492Y1434D01*
X1526Y1434D02*
X1592Y1434D01*
X1626Y1434D02*
X1692Y1434D01*
X1726Y1434D02*
X1792Y1434D01*
X1826Y1434D02*
X1892Y1434D01*
X1926Y1434D02*
X1992Y1434D01*
X2026Y1434D02*
X2092Y1434D01*
X2126Y1434D02*
X2192Y1434D01*
X2226Y1434D02*
X2292Y1434D01*
X2326Y1434D02*
X2392Y1434D01*
X226Y1433D02*
X292Y1433D01*
X326Y1433D02*
X392Y1433D01*
X426Y1433D02*
X492Y1433D01*
X526Y1433D02*
X592Y1433D01*
X626Y1433D02*
X692Y1433D01*
X726Y1433D02*
X792Y1433D01*
X826Y1433D02*
X892Y1433D01*
X926Y1433D02*
X992Y1433D01*
X1026Y1433D02*
X1092Y1433D01*
X1126Y1433D02*
X1192Y1433D01*
X1426Y1433D02*
X1492Y1433D01*
X1526Y1433D02*
X1592Y1433D01*
X1626Y1433D02*
X1692Y1433D01*
X1726Y1433D02*
X1792Y1433D01*
X1826Y1433D02*
X1892Y1433D01*
X1926Y1433D02*
X1992Y1433D01*
X2026Y1433D02*
X2092Y1433D01*
X2126Y1433D02*
X2192Y1433D01*
X2226Y1433D02*
X2292Y1433D01*
X2326Y1433D02*
X2392Y1433D01*
X227Y1432D02*
X291Y1432D01*
X327Y1432D02*
X391Y1432D01*
X427Y1432D02*
X491Y1432D01*
X527Y1432D02*
X591Y1432D01*
X627Y1432D02*
X691Y1432D01*
X727Y1432D02*
X791Y1432D01*
X827Y1432D02*
X891Y1432D01*
X927Y1432D02*
X991Y1432D01*
X1027Y1432D02*
X1091Y1432D01*
X1127Y1432D02*
X1191Y1432D01*
X1427Y1432D02*
X1491Y1432D01*
X1527Y1432D02*
X1591Y1432D01*
X1627Y1432D02*
X1691Y1432D01*
X1727Y1432D02*
X1791Y1432D01*
X1827Y1432D02*
X1891Y1432D01*
X1927Y1432D02*
X1991Y1432D01*
X2027Y1432D02*
X2091Y1432D01*
X2127Y1432D02*
X2191Y1432D01*
X2227Y1432D02*
X2291Y1432D01*
X2327Y1432D02*
X2391Y1432D01*
X228Y1431D02*
X290Y1431D01*
X328Y1431D02*
X390Y1431D01*
X428Y1431D02*
X490Y1431D01*
X528Y1431D02*
X590Y1431D01*
X628Y1431D02*
X690Y1431D01*
X728Y1431D02*
X790Y1431D01*
X828Y1431D02*
X890Y1431D01*
X928Y1431D02*
X990Y1431D01*
X1028Y1431D02*
X1090Y1431D01*
X1128Y1431D02*
X1190Y1431D01*
X1428Y1431D02*
X1490Y1431D01*
X1528Y1431D02*
X1590Y1431D01*
X1628Y1431D02*
X1690Y1431D01*
X1728Y1431D02*
X1790Y1431D01*
X1828Y1431D02*
X1890Y1431D01*
X1928Y1431D02*
X1990Y1431D01*
X2028Y1431D02*
X2090Y1431D01*
X2128Y1431D02*
X2190Y1431D01*
X2228Y1431D02*
X2290Y1431D01*
X2328Y1431D02*
X2390Y1431D01*
X229Y1430D02*
X290Y1430D01*
X329Y1430D02*
X390Y1430D01*
X429Y1430D02*
X490Y1430D01*
X529Y1430D02*
X590Y1430D01*
X629Y1430D02*
X690Y1430D01*
X729Y1430D02*
X790Y1430D01*
X829Y1430D02*
X890Y1430D01*
X929Y1430D02*
X990Y1430D01*
X1029Y1430D02*
X1090Y1430D01*
X1129Y1430D02*
X1190Y1430D01*
X1429Y1430D02*
X1490Y1430D01*
X1529Y1430D02*
X1590Y1430D01*
X1629Y1430D02*
X1690Y1430D01*
X1729Y1430D02*
X1790Y1430D01*
X1829Y1430D02*
X1890Y1430D01*
X1929Y1430D02*
X1990Y1430D01*
X2029Y1430D02*
X2090Y1430D01*
X2129Y1430D02*
X2190Y1430D01*
X2229Y1430D02*
X2290Y1430D01*
X2329Y1430D02*
X2390Y1430D01*
X229Y1429D02*
X289Y1429D01*
X329Y1429D02*
X389Y1429D01*
X429Y1429D02*
X489Y1429D01*
X529Y1429D02*
X589Y1429D01*
X629Y1429D02*
X689Y1429D01*
X729Y1429D02*
X789Y1429D01*
X829Y1429D02*
X889Y1429D01*
X929Y1429D02*
X989Y1429D01*
X1029Y1429D02*
X1089Y1429D01*
X1129Y1429D02*
X1189Y1429D01*
X1429Y1429D02*
X1489Y1429D01*
X1529Y1429D02*
X1589Y1429D01*
X1629Y1429D02*
X1689Y1429D01*
X1729Y1429D02*
X1789Y1429D01*
X1829Y1429D02*
X1889Y1429D01*
X1929Y1429D02*
X1989Y1429D01*
X2029Y1429D02*
X2089Y1429D01*
X2129Y1429D02*
X2189Y1429D01*
X2229Y1429D02*
X2289Y1429D01*
X2329Y1429D02*
X2389Y1429D01*
X230Y1428D02*
X288Y1428D01*
X330Y1428D02*
X388Y1428D01*
X430Y1428D02*
X488Y1428D01*
X530Y1428D02*
X588Y1428D01*
X630Y1428D02*
X688Y1428D01*
X730Y1428D02*
X788Y1428D01*
X830Y1428D02*
X888Y1428D01*
X930Y1428D02*
X988Y1428D01*
X1030Y1428D02*
X1088Y1428D01*
X1130Y1428D02*
X1188Y1428D01*
X1430Y1428D02*
X1488Y1428D01*
X1530Y1428D02*
X1588Y1428D01*
X1630Y1428D02*
X1688Y1428D01*
X1730Y1428D02*
X1788Y1428D01*
X1830Y1428D02*
X1888Y1428D01*
X1930Y1428D02*
X1988Y1428D01*
X2030Y1428D02*
X2088Y1428D01*
X2130Y1428D02*
X2188Y1428D01*
X2230Y1428D02*
X2288Y1428D01*
X2330Y1428D02*
X2388Y1428D01*
X231Y1427D02*
X287Y1427D01*
X331Y1427D02*
X387Y1427D01*
X431Y1427D02*
X487Y1427D01*
X531Y1427D02*
X587Y1427D01*
X631Y1427D02*
X687Y1427D01*
X731Y1427D02*
X787Y1427D01*
X831Y1427D02*
X887Y1427D01*
X931Y1427D02*
X987Y1427D01*
X1031Y1427D02*
X1087Y1427D01*
X1131Y1427D02*
X1187Y1427D01*
X1431Y1427D02*
X1487Y1427D01*
X1531Y1427D02*
X1587Y1427D01*
X1631Y1427D02*
X1687Y1427D01*
X1731Y1427D02*
X1787Y1427D01*
X1831Y1427D02*
X1887Y1427D01*
X1931Y1427D02*
X1987Y1427D01*
X2031Y1427D02*
X2087Y1427D01*
X2131Y1427D02*
X2187Y1427D01*
X2231Y1427D02*
X2287Y1427D01*
X2331Y1427D02*
X2387Y1427D01*
X232Y1426D02*
X286Y1426D01*
X332Y1426D02*
X386Y1426D01*
X432Y1426D02*
X486Y1426D01*
X532Y1426D02*
X586Y1426D01*
X632Y1426D02*
X686Y1426D01*
X732Y1426D02*
X786Y1426D01*
X832Y1426D02*
X886Y1426D01*
X932Y1426D02*
X986Y1426D01*
X1032Y1426D02*
X1086Y1426D01*
X1132Y1426D02*
X1186Y1426D01*
X1432Y1426D02*
X1486Y1426D01*
X1532Y1426D02*
X1586Y1426D01*
X1632Y1426D02*
X1686Y1426D01*
X1732Y1426D02*
X1786Y1426D01*
X1832Y1426D02*
X1886Y1426D01*
X1932Y1426D02*
X1986Y1426D01*
X2032Y1426D02*
X2086Y1426D01*
X2132Y1426D02*
X2186Y1426D01*
X2232Y1426D02*
X2286Y1426D01*
X2332Y1426D02*
X2386Y1426D01*
X233Y1425D02*
X285Y1425D01*
X333Y1425D02*
X385Y1425D01*
X433Y1425D02*
X485Y1425D01*
X533Y1425D02*
X585Y1425D01*
X633Y1425D02*
X685Y1425D01*
X733Y1425D02*
X785Y1425D01*
X833Y1425D02*
X885Y1425D01*
X933Y1425D02*
X985Y1425D01*
X1033Y1425D02*
X1085Y1425D01*
X1133Y1425D02*
X1185Y1425D01*
X1433Y1425D02*
X1485Y1425D01*
X1533Y1425D02*
X1585Y1425D01*
X1633Y1425D02*
X1685Y1425D01*
X1733Y1425D02*
X1785Y1425D01*
X1833Y1425D02*
X1885Y1425D01*
X1933Y1425D02*
X1985Y1425D01*
X2033Y1425D02*
X2085Y1425D01*
X2133Y1425D02*
X2185Y1425D01*
X2233Y1425D02*
X2285Y1425D01*
X2333Y1425D02*
X2385Y1425D01*
X235Y1424D02*
X284Y1424D01*
X335Y1424D02*
X384Y1424D01*
X435Y1424D02*
X484Y1424D01*
X535Y1424D02*
X584Y1424D01*
X635Y1424D02*
X684Y1424D01*
X735Y1424D02*
X784Y1424D01*
X835Y1424D02*
X884Y1424D01*
X935Y1424D02*
X984Y1424D01*
X1035Y1424D02*
X1084Y1424D01*
X1135Y1424D02*
X1184Y1424D01*
X1435Y1424D02*
X1484Y1424D01*
X1535Y1424D02*
X1584Y1424D01*
X1635Y1424D02*
X1684Y1424D01*
X1735Y1424D02*
X1784Y1424D01*
X1835Y1424D02*
X1884Y1424D01*
X1935Y1424D02*
X1984Y1424D01*
X2035Y1424D02*
X2084Y1424D01*
X2135Y1424D02*
X2184Y1424D01*
X2235Y1424D02*
X2284Y1424D01*
X2335Y1424D02*
X2384Y1424D01*
X236Y1423D02*
X282Y1423D01*
X336Y1423D02*
X382Y1423D01*
X436Y1423D02*
X482Y1423D01*
X536Y1423D02*
X582Y1423D01*
X636Y1423D02*
X682Y1423D01*
X736Y1423D02*
X782Y1423D01*
X836Y1423D02*
X882Y1423D01*
X936Y1423D02*
X982Y1423D01*
X1036Y1423D02*
X1082Y1423D01*
X1136Y1423D02*
X1182Y1423D01*
X1436Y1423D02*
X1482Y1423D01*
X1536Y1423D02*
X1582Y1423D01*
X1636Y1423D02*
X1682Y1423D01*
X1736Y1423D02*
X1782Y1423D01*
X1836Y1423D02*
X1882Y1423D01*
X1936Y1423D02*
X1982Y1423D01*
X2036Y1423D02*
X2082Y1423D01*
X2136Y1423D02*
X2182Y1423D01*
X2236Y1423D02*
X2282Y1423D01*
X2336Y1423D02*
X2382Y1423D01*
X237Y1422D02*
X281Y1422D01*
X337Y1422D02*
X381Y1422D01*
X437Y1422D02*
X481Y1422D01*
X537Y1422D02*
X581Y1422D01*
X637Y1422D02*
X681Y1422D01*
X737Y1422D02*
X781Y1422D01*
X837Y1422D02*
X881Y1422D01*
X937Y1422D02*
X981Y1422D01*
X1037Y1422D02*
X1081Y1422D01*
X1137Y1422D02*
X1181Y1422D01*
X1437Y1422D02*
X1481Y1422D01*
X1537Y1422D02*
X1581Y1422D01*
X1637Y1422D02*
X1681Y1422D01*
X1737Y1422D02*
X1781Y1422D01*
X1837Y1422D02*
X1881Y1422D01*
X1937Y1422D02*
X1981Y1422D01*
X2037Y1422D02*
X2081Y1422D01*
X2137Y1422D02*
X2181Y1422D01*
X2237Y1422D02*
X2281Y1422D01*
X2337Y1422D02*
X2381Y1422D01*
X239Y1421D02*
X279Y1421D01*
X339Y1421D02*
X379Y1421D01*
X439Y1421D02*
X479Y1421D01*
X539Y1421D02*
X579Y1421D01*
X639Y1421D02*
X679Y1421D01*
X739Y1421D02*
X779Y1421D01*
X839Y1421D02*
X879Y1421D01*
X939Y1421D02*
X979Y1421D01*
X1039Y1421D02*
X1079Y1421D01*
X1139Y1421D02*
X1179Y1421D01*
X1439Y1421D02*
X1479Y1421D01*
X1539Y1421D02*
X1579Y1421D01*
X1639Y1421D02*
X1679Y1421D01*
X1739Y1421D02*
X1779Y1421D01*
X1839Y1421D02*
X1879Y1421D01*
X1939Y1421D02*
X1979Y1421D01*
X2039Y1421D02*
X2079Y1421D01*
X2139Y1421D02*
X2179Y1421D01*
X2239Y1421D02*
X2279Y1421D01*
X2339Y1421D02*
X2379Y1421D01*
X241Y1420D02*
X278Y1420D01*
X341Y1420D02*
X378Y1420D01*
X441Y1420D02*
X478Y1420D01*
X541Y1420D02*
X578Y1420D01*
X641Y1420D02*
X678Y1420D01*
X741Y1420D02*
X778Y1420D01*
X841Y1420D02*
X878Y1420D01*
X941Y1420D02*
X978Y1420D01*
X1041Y1420D02*
X1078Y1420D01*
X1141Y1420D02*
X1178Y1420D01*
X1441Y1420D02*
X1478Y1420D01*
X1541Y1420D02*
X1578Y1420D01*
X1641Y1420D02*
X1678Y1420D01*
X1741Y1420D02*
X1778Y1420D01*
X1841Y1420D02*
X1878Y1420D01*
X1941Y1420D02*
X1978Y1420D01*
X2041Y1420D02*
X2078Y1420D01*
X2141Y1420D02*
X2178Y1420D01*
X2241Y1420D02*
X2278Y1420D01*
X2341Y1420D02*
X2378Y1420D01*
X243Y1419D02*
X276Y1419D01*
X343Y1419D02*
X376Y1419D01*
X443Y1419D02*
X476Y1419D01*
X543Y1419D02*
X576Y1419D01*
X643Y1419D02*
X676Y1419D01*
X743Y1419D02*
X776Y1419D01*
X843Y1419D02*
X876Y1419D01*
X943Y1419D02*
X976Y1419D01*
X1043Y1419D02*
X1076Y1419D01*
X1143Y1419D02*
X1176Y1419D01*
X1443Y1419D02*
X1476Y1419D01*
X1543Y1419D02*
X1576Y1419D01*
X1643Y1419D02*
X1676Y1419D01*
X1743Y1419D02*
X1776Y1419D01*
X1843Y1419D02*
X1876Y1419D01*
X1943Y1419D02*
X1976Y1419D01*
X2043Y1419D02*
X2076Y1419D01*
X2143Y1419D02*
X2176Y1419D01*
X2243Y1419D02*
X2276Y1419D01*
X2343Y1419D02*
X2376Y1419D01*
X245Y1418D02*
X273Y1418D01*
X345Y1418D02*
X373Y1418D01*
X445Y1418D02*
X473Y1418D01*
X545Y1418D02*
X573Y1418D01*
X645Y1418D02*
X673Y1418D01*
X745Y1418D02*
X773Y1418D01*
X845Y1418D02*
X873Y1418D01*
X945Y1418D02*
X973Y1418D01*
X1045Y1418D02*
X1073Y1418D01*
X1145Y1418D02*
X1173Y1418D01*
X1445Y1418D02*
X1473Y1418D01*
X1545Y1418D02*
X1573Y1418D01*
X1645Y1418D02*
X1673Y1418D01*
X1745Y1418D02*
X1773Y1418D01*
X1845Y1418D02*
X1873Y1418D01*
X1945Y1418D02*
X1973Y1418D01*
X2045Y1418D02*
X2073Y1418D01*
X2145Y1418D02*
X2173Y1418D01*
X2245Y1418D02*
X2273Y1418D01*
X2345Y1418D02*
X2373Y1418D01*
X248Y1417D02*
X270Y1417D01*
X348Y1417D02*
X370Y1417D01*
X448Y1417D02*
X470Y1417D01*
X548Y1417D02*
X570Y1417D01*
X648Y1417D02*
X670Y1417D01*
X748Y1417D02*
X770Y1417D01*
X848Y1417D02*
X870Y1417D01*
X948Y1417D02*
X970Y1417D01*
X1048Y1417D02*
X1070Y1417D01*
X1148Y1417D02*
X1170Y1417D01*
X1448Y1417D02*
X1470Y1417D01*
X1548Y1417D02*
X1570Y1417D01*
X1648Y1417D02*
X1670Y1417D01*
X1748Y1417D02*
X1770Y1417D01*
X1848Y1417D02*
X1870Y1417D01*
X1948Y1417D02*
X1970Y1417D01*
X2048Y1417D02*
X2070Y1417D01*
X2148Y1417D02*
X2170Y1417D01*
X2248Y1417D02*
X2270Y1417D01*
X2348Y1417D02*
X2370Y1417D01*
X252Y1416D02*
X266Y1416D01*
X352Y1416D02*
X366Y1416D01*
X452Y1416D02*
X466Y1416D01*
X552Y1416D02*
X566Y1416D01*
X652Y1416D02*
X666Y1416D01*
X752Y1416D02*
X766Y1416D01*
X852Y1416D02*
X866Y1416D01*
X952Y1416D02*
X966Y1416D01*
X1052Y1416D02*
X1066Y1416D01*
X1152Y1416D02*
X1166Y1416D01*
X1452Y1416D02*
X1466Y1416D01*
X1552Y1416D02*
X1566Y1416D01*
X1652Y1416D02*
X1666Y1416D01*
X1752Y1416D02*
X1766Y1416D01*
X1852Y1416D02*
X1866Y1416D01*
X1952Y1416D02*
X1966Y1416D01*
X2052Y1416D02*
X2066Y1416D01*
X2152Y1416D02*
X2166Y1416D01*
X2252Y1416D02*
X2266Y1416D01*
X2352Y1416D02*
X2366Y1416D01*
D02*
G04 End of Mask0*
M02*