; NON-PLATED HOLES START AT T1
; THROUGH (PLATED) HOLES START AT T100
M48
INCH
T100C0.015748
T101C0.038000
T102C0.042000
T103C0.027559
T104C0.030000
%
T100
X003586Y018549
X009586Y018549
X004586Y018549
X002586Y013549
X006586Y018549
X009586Y015549
X010586Y018549
X008586Y018549
X021084Y016059
X021586Y009549
X007586Y013549
X005586Y013549
X004586Y013549
X007586Y018549
X020586Y009549
X005586Y018549
X006586Y013549
X003586Y013549
T101
X014586Y020549
X006586Y020549
X020586Y008549
X004586Y020549
X010590Y001560
X013586Y008549
X005590Y001560
X014586Y008549
X006590Y001560
X005586Y019549
X018586Y020549
X005586Y008549
X002586Y008549
X007586Y008549
X021586Y008549
X017590Y001560
X002590Y001560
X004586Y019549
X012586Y020549
X016590Y001560
X009586Y020549
X003590Y001560
X008586Y020549
X015586Y020549
X009590Y001560
X011586Y008549
X019590Y001560
X003586Y019549
X005586Y020549
X015586Y008549
X013590Y001560
X007586Y020549
X012586Y019549
X003586Y008549
X017586Y008549
X009586Y019549
X016586Y020549
X019586Y008549
X012590Y001560
X014590Y001560
X021590Y001560
X008586Y019549
X018590Y001560
X010586Y008549
X010586Y019549
X008590Y001560
X011586Y020549
X006586Y019549
X019586Y020549
X008586Y008549
X004586Y008549
X016586Y008549
X007586Y019549
X018586Y008549
X007590Y001560
X003586Y020549
X015590Y001560
X012586Y008549
X006586Y008549
X010586Y020549
X009586Y008549
X011586Y019549
X011590Y001560
X004590Y001560
X020590Y001560
T102
X018586Y019049
X015606Y019049
T103
X001086Y015549
X001086Y016549
X021586Y012549
X022586Y012549
T104
X010586Y014549
X004586Y014549
X018586Y014549
X004586Y017549
X019586Y017549
X020586Y017549
X003586Y014549
X017586Y017549
X014586Y014549
X017586Y014549
X015586Y017549
X020586Y014549
X005586Y014549
X007586Y017549
X021586Y014549
X003586Y017549
X022586Y014549
X023586Y017549
X005586Y017549
X023586Y014549
X002586Y017549
X006586Y017549
X010586Y017549
X002586Y014549
X009586Y014549
X014586Y017549
X021586Y017549
X009586Y017549
X011586Y017549
X008586Y014549
X006586Y014549
X022586Y017549
X008586Y017549
X007586Y014549
X019586Y014549
X011586Y014549
X016586Y014549
X015586Y014549
X016586Y017549
X018586Y017549
T00
M30
