<?xml version="1.0" encoding="UTF-8" standalone="no"?>
<!-- Created with Inkscape (http://www.inkscape.org/) -->

<svg
   width="210mm"
   height="297mm"
   viewBox="0 0 210 297"
   version="1.1"
   id="svg1"
   inkscape:version="1.3.2 (091e20ef0f, 2023-11-25)"
   sodipodi:docname="logo.svg"
   xmlns:inkscape="http://www.inkscape.org/namespaces/inkscape"
   xmlns:sodipodi="http://sodipodi.sourceforge.net/DTD/sodipodi-0.dtd"
   xmlns="http://www.w3.org/2000/svg"
   xmlns:svg="http://www.w3.org/2000/svg">
  <sodipodi:namedview
     id="namedview1"
     pagecolor="#ffffff"
     bordercolor="#666666"
     borderopacity="1.0"
     inkscape:showpageshadow="2"
     inkscape:pageopacity="0.0"
     inkscape:pagecheckerboard="0"
     inkscape:deskcolor="#d1d1d1"
     inkscape:document-units="mm"
     inkscape:zoom="0.72604517"
     inkscape:cx="396.66954"
     inkscape:cy="561.25985"
     inkscape:window-width="1882"
     inkscape:window-height="1019"
     inkscape:window-x="16"
     inkscape:window-y="39"
     inkscape:window-maximized="1"
     inkscape:current-layer="layer1" />
  <defs
     id="defs1">
    <rect
       x="54.83407"
       y="735.08152"
       width="671.6997"
       height="232.42641"
       id="rect11" />
    <rect
       x="80.057002"
       y="346.36418"
       width="545.91558"
       height="504.88776"
       id="rect2" />
    <rect
       x="36.762399"
       y="95.640048"
       width="714.56019"
       height="461.8509"
       id="rect1" />
    <rect
       x="80.057002"
       y="346.36418"
       width="545.91558"
       height="504.88776"
       id="rect9" />
    <rect
       x="80.057002"
       y="346.36418"
       width="545.91558"
       height="504.88776"
       id="rect10" />
    <rect
       x="54.83407"
       y="735.08152"
       width="671.6997"
       height="232.42641"
       id="rect12" />
    <rect
       x="54.83407"
       y="735.08152"
       width="671.6997"
       height="232.42641"
       id="rect13" />
  </defs>
  <g
     inkscape:label="Layer 1"
     inkscape:groupmode="layer"
     id="layer1">
    <text
       xml:space="preserve"
       style="font-size:10.5833px;line-height:1.25;font-family:Symbol;-inkscape-font-specification:Symbol;stroke-width:0.264583"
       x="50.866089"
       y="79.644554"
       id="text4"><tspan
         sodipodi:role="line"
         id="tspan4"
         style="stroke-width:0.264583"
         x="50.866089"
         y="79.644554" /></text>
    <g
       id="g13">
      <g
         id="g10"
         transform="translate(-7.2643219,-3.1527571)"
         style="fill:#000000">
        <text
           xml:space="preserve"
           transform="matrix(-0.26880007,0,0,0.26458333,88.761578,43.459904)"
           id="text9"
           style="font-style:normal;font-variant:normal;font-weight:normal;font-stretch:normal;font-size:192px;line-height:1.25;font-family:WIFI;-inkscape-font-specification:WIFI;white-space:pre;shape-inside:url(#rect10);display:inline;fill:#000000;fill-opacity:1;stroke:#000000;stroke-width:7.49953;stroke-dasharray:none;stroke-opacity:1;paint-order:markers stroke fill"><tspan
             x="80.056641"
             y="519.67348"
             id="tspan1">U</tspan></text>
        <path
           id="path9"
           style="font-size:94.2883px;line-height:1.25;font-family:Symbol;-inkscape-font-specification:Symbol;fill:#000000;stroke:#000000;stroke-width:2;stroke-linecap:round;stroke-linejoin:bevel;stroke-dasharray:none;stroke-opacity:1;paint-order:markers stroke fill"
           d="m 79.597266,136.90739 c -3.028588,0.0487 -6.206966,1.01135 -8.201288,3.34154 -2.761196,3.07638 -4.231912,6.99276 -5.527396,10.81768 0.956433,0 1.912868,0 2.869301,0 1.434643,-2.38792 3.196426,-4.86071 5.889894,-5.99636 1.7305,-0.62349 3.606784,-0.53652 5.420972,-0.54192 -0.321628,5.83571 -0.800869,11.78043 -2.185713,17.45901 -0.723264,3.22819 -2.216099,6.38973 -4.324106,9.03926 -1.252594,1.64812 -2.719403,3.42665 -2.606992,5.60177 -0.09267,2.11346 1.645385,4.12703 3.836042,4.2837 2.051896,0.30499 3.912509,-1.04624 4.924335,-2.68284 2.332715,-3.69586 2.806158,-8.11616 3.430038,-12.31839 0.924173,-7.09853 1.41053,-14.24302 1.87094,-21.38251 3.679201,0 7.358401,0 11.0376,0 -0.72199,6.70687 -1.525988,13.42346 -1.706638,20.17182 0.01218,3.73308 0.116706,7.59176 1.555687,11.10379 1.220075,2.89499 4.172048,5.2277 7.485588,5.14348 3.51176,0.0205 6.5671,-2.45922 8.06309,-5.41182 1.36204,-2.713 1.85111,-5.73732 2.18639,-8.71081 -0.89372,0 -1.78745,0 -2.68118,0 -0.25214,1.95446 -1.11781,4.07727 -3.09321,4.91951 -2.12233,0.98078 -4.83711,0.0786 -5.99859,-1.88348 -1.51707,-2.64481 -1.19281,-5.79368 -1.18659,-8.70686 0.14025,-5.55936 0.67635,-11.10583 1.52395,-16.62563 3.78943,0 7.57886,0 11.36829,0 0,-2.54289 0,-5.08577 0,-7.62865 -11.31678,0.005 -22.633718,-0.0103 -33.950414,0.008 z" />
      </g>
      <text
         xml:space="preserve"
         transform="matrix(0.33609065,0,0,0.36206563,94.258383,-155.99334)"
         id="text12"
         style="font-style:normal;font-variant:normal;font-weight:normal;font-stretch:normal;font-size:192px;line-height:1.25;font-family:'8-bit Arcade In';-inkscape-font-specification:'8-bit Arcade In';white-space:pre;shape-inside:url(#rect13);display:inline;fill:#000000;stroke:#000000;stroke-width:4.00944;stroke-dasharray:none;stroke-opacity:1;paint-order:markers stroke fill"><tspan
           x="54.833984"
           y="903.08203"
           id="tspan2">WIPI</tspan></text>
    </g>
  </g>
</svg>
